<!DOCTYPE svg PUBLIC "-//W3C//DTD SVG 1.1//EN" "http://www.w3.org/Graphics/SVG/1.1/DTD/svg11.dtd">
<!-- Uploaded to: SVG Repo, www.svgrepo.com, Transformed by: SVG Repo Mixer Tools -->
<svg width="64px" height="64px" viewBox="0 0 48.00 48.00" xmlns="http://www.w3.org/2000/svg" fill="#ffffff" stroke="#ffffff">
<g id="SVGRepo_bgCarrier" stroke-width="0" transform="translate(0,0), scale(1)">
<rect x="0" y="0" width="48.00" height="48.00" rx="0" fill="#012F75" strokewidth="0"/>
</g>
<g id="SVGRepo_tracerCarrier" stroke-linecap="round" stroke-linejoin="round" stroke="#CCCCCC" stroke-width="2.976"/>
<g id="SVGRepo_iconCarrier"> <title>accessibility</title> <g id="Layer_2" data-name="Layer 2"> <g id="invisible_box" data-name="invisible box"> <rect width="48" height="48" fill="none"/> </g> <g id="Layer_6" data-name="Layer 6"> <g> <circle cx="24" cy="7" r="4"/> <path d="M40,13H8a2,2,0,0,0,0,4H19.9V27L15.1,42.4a2,2,0,0,0,1.3,2.5H17a2,2,0,0,0,1.9-1.4L23.8,28h.4l4.9,15.6A2,2,0,0,0,31,45h.6a2,2,0,0,0,1.3-2.5L28.1,27V17H40a2,2,0,0,0,0-4Z"/> </g> </g> </g> </g>
</svg>