<svg width="120" height="120" viewBox="0 0 120 120" fill="none" xmlns="http://www.w3.org/2000/svg">
<circle cx="61" cy="60" r="48" fill="#FDF6E8"/>
<path fill-rule="evenodd" clip-rule="evenodd" d="M10 37.8131C10 34.6026 12.6026 32 15.8131 32L105.187 32C108.397 32 111 34.6026 111 37.8131V82.1869C111 85.3974 108.397 88 105.187 88H15.8131C12.6026 88 10 85.3974 10 82.1869V37.8131Z" fill="white" stroke="#363636" stroke-width="1.09803"/>
<path opacity="0.1" fill-rule="evenodd" clip-rule="evenodd" d="M14.7267 32.1367C14.2633 32.988 14 33.9639 14 35.0013V79.0013C14 82.315 16.6863 85.0013 20 85.0013H109C109.437 85.0013 109.863 84.9546 110.273 84.866C109.257 86.7338 107.276 88.0013 105 88.0013H16C12.6863 88.0013 10 85.315 10 82.0013V38.0013C10 35.1245 12.0246 32.7206 14.7267 32.1367Z" fill="#363636"/>
<rect x="28" y="51" width="41" height="4" rx="2" fill="#EEEEEE"/>
<rect x="40" y="58" width="29" height="4" rx="2" fill="#EEEEEE"/>
<path fill-rule="evenodd" clip-rule="evenodd" d="M32 42C32 40.3431 33.3431 39 35 39L66 39C67.6569 39 69 40.3431 69 42C69 43.6569 67.6569 45 66 45H35C33.3431 45 32 43.6569 32 42Z" fill="#EEEEEE"/>
<path fill-rule="evenodd" clip-rule="evenodd" d="M80 76C80 74.8954 80.8954 74 82 74H104C105.105 74 106 74.8954 106 76V80C106 81.1046 105.105 82 104 82H82C80.8954 82 80 81.1046 80 80V76Z" fill="#FFAB00"/>
<path fill-rule="evenodd" clip-rule="evenodd" d="M51 76C51 74.8954 51.8954 74 53 74H75C76.1046 74 77 74.8954 77 76V80C77 81.1046 76.1046 82 75 82H53C51.8954 82 51 81.1046 51 80V76Z" fill="#FFAB00"/>
<path fill-rule="evenodd" clip-rule="evenodd" d="M22 76C22 74.8954 22.8954 74 24 74H46C47.1046 74 48 74.8954 48 76V80C48 81.1046 47.1046 82 46 82H24C22.8954 82 22 81.1046 22 80V76Z" fill="#FFAB00"/>
<path fill-rule="evenodd" clip-rule="evenodd" d="M72.0441 38.9973C72.0441 37.8937 72.9379 36.998 74.0414 36.9957L104.997 36.9298C106.103 36.9275 107 37.8226 107 38.9282L107 67.9235C107 69.0287 106.103 69.9251 104.998 69.9251L74.0423 69.9253C72.9384 69.9253 72.0439 69.0309 72.0439 67.9269L72.0441 38.9973Z" fill="#F2F2F2"/>
<path fill-rule="evenodd" clip-rule="evenodd" d="M104.007 65.8076C104.007 66.4305 103.501 66.9358 102.878 66.9358L76.1479 66.9353C75.5258 66.9352 75.0218 66.4312 75.0218 65.8091L75.0217 62.4649L80.4087 56.8302C80.7453 56.4455 81.2916 56.4443 81.6291 56.8275L85.6268 61.3668L95.3569 50.2429C95.6934 49.8582 96.2398 49.857 96.5772 50.2402L104.006 55.0149L104.007 65.8076Z" fill="black" fill-opacity="0.1"/>
<path fill-rule="evenodd" clip-rule="evenodd" d="M79.9029 49.082C77.6942 49.0364 75.9253 47.2087 75.9519 44.9997C75.9784 42.7907 77.7905 41.037 79.9991 41.0826C82.2078 41.1282 83.9767 42.9559 83.9502 45.1648C83.9236 47.3738 82.1115 49.1276 79.9029 49.082Z" fill="black" fill-opacity="0.1"/>
<path d="M24.5 5.5C24.5 5.22386 24.2762 5 24 5C23.7239 5 23.5 5.22386 23.5 5.5V12.5C23.5 12.7761 23.7239 13 24 13C24.2762 13 24.5 12.7761 24.5 12.5V5.5Z" fill="#FFDD99"/>
<path fill-rule="evenodd" clip-rule="evenodd" d="M20.5 8.5C20.2239 8.5 20 8.72386 20 9C20 9.27614 20.2239 9.5 20.5 9.5H27.5C27.7761 9.5 28 9.27614 28 9C28 8.72386 27.7761 8.5 27.5 8.5H20.5Z" fill="#FFDD99"/>
<path d="M5.49981 19.5C5.49981 19.2239 5.27595 19 4.99981 19C4.72366 19 4.49981 19.2239 4.49981 19.5V24.5C4.49981 24.7761 4.72366 25 4.99981 25C5.27595 25 5.49981 24.7761 5.49981 24.5V19.5Z" fill="#FFDD99"/>
<path fill-rule="evenodd" clip-rule="evenodd" d="M2.5 21.5003C2.22386 21.5003 2 21.7241 2 22.0003C2 22.2764 2.22386 22.5003 2.5 22.5003H7.5C7.77614 22.5003 8 22.2764 8 22.0003C8 21.7241 7.77614 21.5003 7.5 21.5003H2.5Z" fill="#FFDD99"/>
<path fill-rule="evenodd" clip-rule="evenodd" d="M9.36994 3.01167L9.49602 3L9.62219 3.00301C9.70605 3.0099 9.7891 3.02649 9.86966 3.05267C10.0308 3.10503 10.1774 3.19425 10.298 3.31325C10.4185 3.43222 10.5096 3.57768 10.5641 3.73806L11.1335 5.45723L11.2061 5.61727C11.3352 5.87913 11.5044 6.11626 11.709 6.32211C11.9953 6.61028 12.3434 6.82961 12.7269 6.96356L14.375 7.50331L14.4627 7.54965C14.5482 7.59991 14.6266 7.66175 14.6958 7.73366C14.8123 7.85486 14.8992 8.00137 14.9497 8.16173C15.0002 8.32209 15.0129 8.49194 14.9868 8.65802C14.9607 8.8241 14.8966 8.9819 14.7994 9.11906C14.666 9.30622 14.4774 9.44708 14.2599 9.52179L12.5669 10.0776L12.4042 10.1502C12.0314 10.3314 11.7068 10.5948 11.4538 10.9227C11.2673 11.1644 11.1233 11.4362 11.0279 11.7263L10.4795 13.384L10.4266 13.481C10.3498 13.6064 10.2479 13.7156 10.1264 13.8013C9.94262 13.931 9.72313 14.0004 9.49823 14C9.27302 14.0002 9.05362 13.9299 8.87065 13.7988C8.68556 13.6628 8.5445 13.4739 8.46619 13.257L7.90826 11.5649L7.83498 11.4007C7.70428 11.1318 7.53115 10.8884 7.32091 10.6779C7.02672 10.3832 6.66777 10.1611 6.27278 10.0292L4.62556 9.48643L4.53775 9.44009C4.4522 9.38982 4.37365 9.32794 4.30439 9.25596C4.18772 9.13469 4.10076 8.98807 4.05029 8.82757C3.99972 8.66704 3.98711 8.49705 4.01328 8.33085C4.03944 8.16466 4.10377 8.00679 4.20125 7.86962C4.3409 7.67598 4.54014 7.53274 4.7687 7.46194L6.46618 6.90294L6.63051 6.82974C6.89942 6.69916 7.14298 6.52607 7.35365 6.31582C7.64858 6.02147 7.87084 5.6624 8.00277 5.26712L8.55137 3.61309L8.60429 3.51672C8.6812 3.39216 8.78313 3.28388 8.90447 3.19921C9.0432 3.10119 9.20245 3.03706 9.36994 3.01167ZM10.1539 5.50697L9.47471 3.73298L8.90925 5.50664C8.6473 6.18155 8.36606 6.61029 8.00625 6.96932C7.64721 7.32755 7.21917 7.60798 6.74697 7.79481L6.54197 7.86911L4.73307 8.54947L6.51381 9.1264C7.18844 9.389 7.61714 9.67022 7.97638 10.0297C8.33478 10.3883 8.61573 10.8157 8.80355 11.2873L8.87829 11.4921L9.55189 13.2663L10.1299 11.4911C10.3882 10.8157 10.6666 10.3861 11.0234 10.0256C11.3836 9.66636 11.8123 9.38435 12.2852 9.19518L12.4905 9.11983L14.2664 8.4473L12.4828 7.8686C11.8172 7.60082 11.3948 7.3186 11.0412 6.96062C10.69 6.60163 10.4141 6.17705 10.2281 5.70978L10.1539 5.50697Z" fill="#FFDD99"/>
<path d="M114.5 15.5C114.5 15.2239 114.276 15 114 15C113.724 15 113.5 15.2239 113.5 15.5V22.5C113.5 22.7761 113.724 23 114 23C114.276 23 114.5 22.7761 114.5 22.5V15.5Z" fill="#FFDD99"/>
<path fill-rule="evenodd" clip-rule="evenodd" d="M110.5 18.5C110.224 18.5 110 18.7239 110 19C110 19.2762 110.224 19.5 110.5 19.5H117.5C117.776 19.5 118 19.2762 118 19C118 18.7239 117.776 18.5 117.5 18.5H110.5Z" fill="#FFDD99"/>
<path fill-rule="evenodd" clip-rule="evenodd" d="M104.572 6.13378C104.67 6.0647 104.782 6.01903 104.899 6L105.273 6.03072L105.356 6.06386C105.436 6.10161 105.51 6.15292 105.574 6.21578C105.66 6.30136 105.726 6.406 105.765 6.52138L106.189 7.79875L106.253 7.93408C106.345 8.11074 106.463 8.27192 106.603 8.41309C106.813 8.62481 107.068 8.78596 107.35 8.88438L108.781 9.44381L108.84 9.51248C108.895 9.58432 108.937 9.66523 108.964 9.75175C109 9.86711 109.009 9.98929 108.991 10.1088C108.972 10.2282 108.926 10.3418 108.856 10.4404C108.76 10.5751 108.624 10.6764 108.468 10.7302L107.216 11.1429L107.083 11.2044C106.823 11.3367 106.595 11.5249 106.416 11.7572C106.279 11.9349 106.173 12.1345 106.103 12.3476L105.696 13.5721L105.649 13.653C105.597 13.7313 105.529 13.8011 105.45 13.8571C105.318 13.9503 105.16 14.0003 104.999 14C104.837 14.0001 104.679 13.9495 104.548 13.8553C104.415 13.7574 104.313 13.6215 104.257 13.4652L103.841 12.2078L103.776 12.0687C103.683 11.8871 103.563 11.7217 103.419 11.5773C103.203 11.3608 102.94 11.1976 102.65 11.1007L101.219 10.539L101.16 10.4703C101.105 10.3984 101.063 10.3175 101.036 10.2309C101 10.1154 100.991 9.99309 101.01 9.87354C101.028 9.75398 101.075 9.64042 101.145 9.54174C101.245 9.40248 101.388 9.29942 101.552 9.24848L102.813 8.83122L102.952 8.76639C103.133 8.6731 103.298 8.5527 103.443 8.40853C103.659 8.19225 103.822 7.92842 103.919 7.638L104.326 6.4164L104.373 6.33606C104.426 6.25834 104.493 6.18906 104.572 6.13378ZM105.463 7.9246L104.982 6.66635L104.581 7.92432C104.4 8.3895 104.206 8.68509 103.958 8.93257C103.716 9.17434 103.428 9.36466 103.11 9.49343L102.949 9.55264L101.666 10.0351L102.929 10.4442C103.394 10.6252 103.69 10.819 103.938 11.0668C104.179 11.3088 104.37 11.5963 104.5 11.9136L104.559 12.0747L105.037 13.333L105.447 12.0741C105.625 11.6086 105.816 11.3123 106.062 11.064C106.305 10.8215 106.594 10.6301 106.912 10.4997L107.074 10.4397L108.333 9.96269L107.069 9.55253C106.598 9.35991 106.314 9.16841 106.075 8.92665C105.838 8.68435 105.65 8.39868 105.522 8.08418L105.463 7.9246Z" fill="#FFDD99"/>
</svg>
