<svg width="120" height="120" viewBox="0 0 120 120" fill="none" xmlns="http://www.w3.org/2000/svg">
<path opacity="0.03" d="M60 108C87.6142 108 110 105.314 110 102C110 98.6863 87.6142 96 60 96C32.3858 96 10 98.6863 10 102C10 105.314 32.3858 108 60 108Z" fill="black"/>
<path d="M72.8455 33.4687L71.2497 33.4624L69.6539 33.4687L68.106 33.4879C67.852 33.4922 67.5999 33.4971 67.3499 33.5025L65.8727 33.542C65.6304 33.5498 65.39 33.5581 65.1515 33.5671L63.7436 33.628L62.3811 33.7039C61.4877 33.7595 60.6241 33.8254 59.7895 33.9023L58.5592 34.0258C44.4559 35.5647 39.0844 40.5524 37.8143 52.539L37.7154 53.5837C37.7006 53.7607 37.6865 53.9391 37.6733 54.119L37.6033 55.216C37.5932 55.4018 37.5838 55.5891 37.5752 55.7778L37.5327 56.9283L37.5076 58.115L37.4994 59.3386L37.507 60.5188L37.5303 61.6648C37.5355 61.853 37.5414 62.0397 37.548 62.2251L37.5958 63.3207L37.6607 64.3832C37.6975 64.9062 37.741 65.417 37.7913 65.9159L37.9015 66.8976L38.0308 67.8479C39.5602 78.1287 44.6657 82.7701 56.8251 84.4385L57.95 84.5821C58.1408 84.6046 58.3332 84.6266 58.5272 84.6478L59.7116 84.7676C60.113 84.805 60.5212 84.8398 60.9362 84.8722L62.2017 84.9619L63.5087 85.0373L64.8578 85.0987L66.2495 85.1466L67.6844 85.1815C67.9272 85.1863 68.1718 85.1905 68.4182 85.1942L84.9211 97.4309C85.1154 97.5749 85.3512 97.6528 85.5936 97.6528C86.1671 97.6528 86.6404 97.2259 86.7098 96.6742L86.7186 96.5338L86.7187 84.2851L87.6859 84.1237C98.9405 82.1275 103.474 77.0674 104.662 66.3548L104.754 65.436L104.831 64.4899C104.843 64.3299 104.854 64.1688 104.864 64.0065L104.919 63.0189L104.959 62.0032C104.965 61.8316 104.969 61.6587 104.974 61.4847L104.994 60.4261L105 59.3386C105 58.9245 104.997 58.5167 104.992 58.115L104.967 56.9283L104.924 55.7778C104.916 55.5891 104.906 55.4018 104.896 55.216L104.826 54.119C104.813 53.9391 104.799 53.7607 104.784 53.5837L104.685 52.539C103.415 40.5524 98.0436 35.5647 83.9402 34.0258L82.7099 33.9023C81.8753 33.8254 81.0117 33.7595 80.1183 33.7039L78.7558 33.628L77.3479 33.5671C77.1094 33.5581 76.869 33.5498 76.6267 33.542L75.1496 33.5025L73.6254 33.4767C73.3674 33.4735 73.1075 33.4708 72.8455 33.4687Z" fill="#EEEEEE" stroke="#363636"/>
<path fill-rule="evenodd" clip-rule="evenodd" d="M48.7503 22L50.3461 22.0063L51.894 22.0255C52.148 22.0298 52.4001 22.0347 52.6501 22.0401L54.1273 22.0796C54.3696 22.0874 54.61 22.0957 54.8485 22.1047L56.2564 22.1656L57.6189 22.2415C58.5123 22.2971 59.3759 22.363 60.2105 22.4399L61.4408 22.5634C75.5441 24.1023 80.9156 29.09 82.1857 41.0766L82.2846 42.1213C82.2994 42.2983 82.3135 42.4767 82.3267 42.6566L82.3967 43.7536C82.4068 43.9394 82.4162 44.1267 82.4248 44.3154L82.4673 45.4659L82.4924 46.6526L82.5006 47.8762L82.493 49.0564L82.4697 50.2024C82.4645 50.3906 82.4586 50.5773 82.452 50.7627L82.4042 51.8583L82.3393 52.9208C82.3025 53.4438 82.259 53.9546 82.2087 54.4535L82.0985 55.4352L81.9692 56.3855C80.4398 66.6663 75.3343 71.3077 63.1749 72.9761L62.05 73.1197C61.8592 73.1422 61.6668 73.1642 61.4728 73.1854L60.2884 73.3052C59.887 73.3426 59.4788 73.3774 59.0638 73.4098L57.7983 73.4995L56.4913 73.5749L55.1422 73.6363L53.7505 73.6842L52.3156 73.7191C52.0728 73.7239 51.8282 73.7281 51.5818 73.7318L35.0789 85.9684C34.8846 86.1125 34.6488 86.1904 34.4064 86.1904C33.8329 86.1904 33.3596 85.7635 33.2902 85.2118L33.2814 85.0714L33.2813 72.8227L32.3141 72.6613C21.0595 70.6651 16.5264 65.605 15.3384 54.8924L15.2459 53.9736L15.1689 53.0275C15.1573 52.8675 15.1464 52.7064 15.136 52.5441L15.0814 51.5565L15.041 50.5408C15.0355 50.3692 15.0305 50.1963 15.0261 50.0223L15.0065 48.9637L15 47.8762C15 47.4621 15.0027 47.0543 15.0082 46.6526L15.0333 45.4659L15.0758 44.3154C15.0844 44.1267 15.0937 43.9394 15.1039 43.7536L15.1739 42.6566C15.1871 42.4767 15.2012 42.2983 15.216 42.1213L15.3149 41.0766C16.585 29.09 21.9564 24.1023 36.0598 22.5634L37.2901 22.4399C38.1247 22.363 38.9883 22.2971 39.8817 22.2415L41.2442 22.1656L42.6521 22.1047C42.8906 22.0957 43.131 22.0874 43.3733 22.0796L44.8504 22.0401L46.3746 22.0143C46.6326 22.0111 46.8925 22.0084 47.1545 22.0063L48.7503 22Z" fill="white" stroke="#363636"/>
<path fill-rule="evenodd" clip-rule="evenodd" d="M32.1505 47.493C32.1505 60.4933 38.8174 69.2364 52.1512 73.7225L52.3156 73.719C52.0728 73.7237 51.8282 73.728 51.5818 73.7317L35.0789 85.9683C34.8846 86.1124 34.6488 86.1902 34.4064 86.1902C33.8329 86.1902 33.3596 85.7634 33.2902 85.2116L33.2814 85.0713L33.2813 72.8226L32.3141 72.6611C21.0595 70.6649 16.5264 65.6048 15.3384 54.8922L15.2459 53.9734L15.1689 53.0274C15.1573 52.8674 15.1464 52.7063 15.136 52.544L15.0814 51.5564L15.041 50.5407C15.0355 50.369 15.0305 50.1962 15.0261 50.0221L15.0065 48.9636L15 47.876C15 47.462 15.0027 47.0542 15.0082 46.6525L15.0333 45.4658L15.0758 44.3153L15.1039 43.7535L15.1739 42.6565C15.1871 42.4766 15.2012 42.2982 15.216 42.1212L15.3149 41.0765C16.585 29.0898 21.9564 24.1022 36.0598 22.5633L37.2901 22.4397C38.1247 22.3629 38.9883 22.297 39.8817 22.2413L41.2442 22.1655L42.6521 22.1045C42.8722 22.0963 43.0938 22.0885 43.3171 22.0813C35.8725 26.9182 32.1505 35.3884 32.1505 47.493Z" fill="#363636" fill-opacity="0.1"/>
<path fill-rule="evenodd" clip-rule="evenodd" d="M34.9763 43.7497C36.1816 43.1991 37.3858 43.203 38.3112 43.8401C39.227 44.4707 39.7165 45.6232 39.7322 46.9992C39.7471 48.3103 39.3321 49.8206 38.4765 51.2175C37.6178 52.6193 36.4798 53.6378 35.3403 54.1584C34.135 54.709 32.9308 54.7051 32.0054 54.068C31.0896 53.4374 30.6001 52.2849 30.5845 50.9089C30.5696 49.5978 30.9845 48.0875 31.8402 46.6906C32.6989 45.2888 33.8368 44.2703 34.9763 43.7497Z" fill="url(#paint0_linear_2935_1107)"/>
<path fill-rule="evenodd" clip-rule="evenodd" d="M48.4158 43.7497C49.6211 43.1991 50.8253 43.203 51.7507 43.8401C52.6665 44.4707 53.156 45.6232 53.1716 46.9992C53.1865 48.3103 52.7715 49.8206 51.9159 51.2175C51.0572 52.6193 49.9193 53.6378 48.7797 54.1584C47.5744 54.709 46.3703 54.7051 45.4449 54.068C44.5291 53.4374 44.0395 52.2849 44.0239 50.9089C44.009 49.5978 44.424 48.0875 45.2796 46.6906C46.1383 45.2888 47.2762 44.2703 48.4158 43.7497Z" fill="url(#paint1_linear_2935_1107)"/>
<path fill-rule="evenodd" clip-rule="evenodd" d="M61.8533 43.7497C63.0586 43.1991 64.2628 43.203 65.1882 43.8401C66.104 44.4707 66.5935 45.6232 66.6091 46.9992C66.624 48.3103 66.209 49.8206 65.3534 51.2175C64.4947 52.6193 63.3568 53.6378 62.2172 54.1584C61.0119 54.709 59.8078 54.7051 58.8824 54.068C57.9666 53.4374 57.477 52.2849 57.4614 50.9089C57.4465 49.5978 57.8615 48.0875 58.7171 46.6906C59.5758 45.2888 60.7137 44.2703 61.8533 43.7497Z" fill="url(#paint2_linear_2935_1107)"/>
<defs>
<linearGradient id="paint0_linear_2935_1107" x1="30.3781" y1="53.0124" x2="41.3934" y2="48.2873" gradientUnits="userSpaceOnUse">
<stop stop-color="#FF7100"/>
<stop offset="1" stop-color="#F6DA35"/>
</linearGradient>
<linearGradient id="paint1_linear_2935_1107" x1="43.8176" y1="53.0124" x2="54.8328" y2="48.2873" gradientUnits="userSpaceOnUse">
<stop stop-color="#FF7100"/>
<stop offset="1" stop-color="#F6DA35"/>
</linearGradient>
<linearGradient id="paint2_linear_2935_1107" x1="57.2551" y1="53.0124" x2="68.2703" y2="48.2873" gradientUnits="userSpaceOnUse">
<stop stop-color="#FF7100"/>
<stop offset="1" stop-color="#F6DA35"/>
</linearGradient>
</defs>
</svg>
