<svg width="14" height="10" viewBox="0 0 14 10" fill="none" xmlns="http://www.w3.org/2000/svg">
<path d="M12.2916 0.661496C12.4786 0.458263 12.7949 0.445065 12.9981 0.632017C13.1829 0.801974 13.2106 1.07884 13.0736 1.28046L13.0276 1.33851L5.53601 9.48251C5.49246 9.52985 5.44507 9.57351 5.39432 9.61305C4.91424 9.987 4.2337 9.92653 3.82601 9.49044L3.75699 9.4096L0.605572 5.36389C0.435877 5.14604 0.474914 4.83187 0.692763 4.66218C0.890808 4.50791 1.16845 4.52615 1.34479 4.69441L1.39447 4.74937L4.5459 8.79508C4.60246 8.8677 4.70718 8.88071 4.7798 8.82414L4.80004 8.8055L12.2916 0.661496Z" fill="#363636"/>
</svg>
