<?xml version="1.0" encoding="UTF-8"?>
<svg width="110px" height="109px" viewBox="0 0 110 109" version="1.1" xmlns="http://www.w3.org/2000/svg" xmlns:xlink="http://www.w3.org/1999/xlink">
    <title>Artboard</title>
    <g id="Artboard" stroke="none" stroke-width="1" fill="none" fill-rule="evenodd">
        <g id="Group-2">
            <rect id="Rectangle" x="0" y="0" width="110" height="110"></rect>
            <g id="Group-20-Copy" transform="translate(8.000000, 19.000000)">
                <g id="Group" transform="translate(0.000000, 0.000000)">
                    <path d="M48.0828975,5.30392183 C48.2740529,5.24528348 48.4708795,5.26967746 48.6345769,5.35651988 C48.7982743,5.4433623 48.9288424,5.59265317 48.9874807,5.78380858 L48.9874807,5.78380858 L60.1279017,42.1005168 L79.2898068,28.37198 C79.4614264,28.2490232 79.6781629,28.2070933 79.8832577,28.2571708 C80.0774985,28.304598 80.2341269,28.426267 80.3303383,28.5846394 C80.4265496,28.7430118 80.4623439,28.9380876 80.4149167,29.1323284 L80.4149167,29.1323284 L69.8806584,72.2759274 L23.5620313,72.2759274 L14.45153,29.094797 C14.4087371,28.8919711 14.4549262,28.6805308 14.5783994,28.5140256 C14.6974982,28.3534195 14.8704204,28.2562922 15.0537195,28.2290912 C15.2370185,28.2018902 15.4306944,28.2446154 15.5913005,28.3637142 L15.5913005,28.3637142 L34.0890031,42.0808349 L47.6166707,5.74353658 C47.6952494,5.53246261 47.8675745,5.36997375 48.0828975,5.30392183 Z" id="Path-6-Copy" stroke="#363636" stroke-width="1.44814513" fill="#EEEEEE"></path>
                    <ellipse id="Oval-Copy" stroke="#363636" stroke-width="1.44814513" fill="#22C1A1" cx="63.9651127" cy="59.992057" rx="1.94142223" ry="2.06780009"></ellipse>
                    <ellipse id="Oval-Copy-5" stroke="#363636" stroke-width="1.44814513" fill="#22C1A1" cx="31.4282795" cy="59.992057" rx="1.94142223" ry="2.06780009"></ellipse>
                    <ellipse id="Oval-Copy-6" stroke="#363636" stroke-width="1.44814513" fill="#22C1A1" cx="47.8873457" cy="59.992057" rx="3.39069398" ry="3.5857855"></ellipse>
                    <g id="Group-9-Copy" fill="#22C1A1">
                        <g id="Group-5" transform="translate(63.333333, 0.000000)">
                            <rect id="Rectangle" x="4.31818182" y="0" width="1.07954545" height="8.93877551" rx="0.539772727"></rect>
                            <path d="M4.31818182,-0.407467532 C4.62672866,-0.407467532 4.87685529,-0.1573409 4.87685529,0.151205937 L4.87685529,7.67022263 C4.87685529,7.97876947 4.62672866,8.2288961 4.31818182,8.2288961 C4.00963498,8.2288961 3.75950835,7.97876947 3.75950835,7.67022263 L3.75950835,0.151205937 C3.75950835,-0.1573409 4.00963498,-0.407467532 4.31818182,-0.407467532 Z" id="Rectangle-Copy-2" transform="translate(4.318182, 3.910714) rotate(-270.000000) translate(-4.318182, -3.910714) "></path>
                        </g>
                        <g id="Group-5" transform="translate(86.363636, 22.346939)">
                            <rect id="Rectangle" x="2.87878788" y="0" width="1" height="5.95918367" rx="0.5"></rect>
                            <path d="M2.87878788,-0.395794682 C3.15305173,-0.395794682 3.37538652,-0.173459897 3.37538652,0.100803958 L3.37538652,4.86518244 C3.37538652,5.13944629 3.15305173,5.36178108 2.87878788,5.36178108 C2.60452402,5.36178108 2.38218924,5.13944629 2.38218924,4.86518244 L2.38218924,0.100803958 C2.38218924,-0.173459897 2.60452402,-0.395794682 2.87878788,-0.395794682 Z" id="Rectangle-Copy-2" transform="translate(2.878788, 2.482993) rotate(-270.000000) translate(-2.878788, -2.482993) "></path>
                        </g>
                        <g id="Group-5" transform="translate(-0.000000, 22.346939)">
                            <rect id="Rectangle" x="4.31818182" y="0" width="1.07954545" height="7.44897959" rx="0.539772727"></rect>
                            <path d="M4.31818182,-1.05925325 C4.57530418,-1.05925325 4.78374304,-0.850814387 4.78374304,-0.593692022 L4.78374304,7.11154917 C4.78374304,7.36867153 4.57530418,7.57711039 4.31818182,7.57711039 C4.06105945,7.57711039 3.85262059,7.36867153 3.85262059,7.11154917 L3.85262059,-0.593692022 C3.85262059,-0.850814387 4.06105945,-1.05925325 4.31818182,-1.05925325 Z" id="Rectangle-Copy-2" transform="translate(4.318182, 3.258929) rotate(-270.000000) translate(-4.318182, -3.258929) "></path>
                        </g>
                        <path d="M87.8082326,0 L87.973221,0.0158001433 C88.1923821,0.0501981818 88.4007775,0.137043736 88.5823004,0.269799253 C88.7410842,0.384481792 88.8744588,0.531121757 88.9751095,0.699828393 L89.0443475,0.830341328 L89.7622159,3.0704989 C89.9348492,3.60583999 90.2256865,4.09215668 90.6116199,4.49081896 C90.8872824,4.7755624 91.2059908,5.00999771 91.5578753,5.18684566 L91.7729082,5.28598572 L93.9941305,6.04307741 C94.2932087,6.13896274 94.5539205,6.33295721 94.736653,6.59520951 C94.8642094,6.78099178 94.9483868,6.99480393 94.9826292,7.21988593 C95.0168706,7.44497612 95.0003695,7.6752073 94.9341883,7.89263043 C94.8681537,8.11000624 94.7543626,8.3085818 94.6016922,8.47281351 C94.5110656,8.57030297 94.4082792,8.65411631 94.2963276,8.72219777 L94.1814317,8.78495914 L92.025977,9.5200126 C91.5091144,9.69864588 91.0394218,9.99946397 90.6544598,10.3986291 C90.379356,10.6837382 90.1527992,11.0134339 89.9817821,11.3775086 L89.8858925,11.5999971 L89.1558113,13.8916265 C89.0533372,14.185493 88.868753,14.4411982 88.6265651,14.6255206 C88.3871419,14.8029563 88.1000428,14.8982314 87.8053497,14.8979542 C87.5110574,14.8985142 87.223846,14.8044465 86.9833553,14.6288747 C86.8243924,14.5128294 86.6910167,14.3649394 86.590481,14.1950733 L86.52135,14.0637074 L85.8037375,11.8184842 C85.6788765,11.4256004 85.4904519,11.0575919 85.2464703,10.7301264 C84.91532,10.2860756 84.4905682,9.92934524 84.0027135,9.68389344 L83.7898583,9.58558263 L81.5745157,8.83285304 C81.2899421,8.73166714 81.0430507,8.54088372 80.868604,8.28741271 C80.741406,8.10164422 80.6574542,7.88792832 80.6233191,7.66298943 C80.589199,7.43805939 80.6058165,7.20801743 80.6718733,6.99084214 C80.7379386,6.7736528 80.8516677,6.57522254 81.0041551,6.4110811 C81.094638,6.31368259 81.1973145,6.22992572 81.3091247,6.16186214 L81.4238663,6.09910565 L83.5804939,5.36808909 C84.0823296,5.18667493 84.5377939,4.88961052 84.9124981,4.4993376 C85.1801532,4.22053931 85.4016067,3.89938388 85.5705385,3.54472219 L85.6655443,3.32797523 L86.4106344,0.999604794 C86.4818801,0.782386789 86.6011137,0.585381301 86.7588305,0.424258368 C86.9165968,0.263084625 87.1085088,0.142244335 87.3193143,0.07133504 C87.4247262,0.0358820831 87.5334103,0.0134020172 87.6431377,0.00408336131 L87.8082326,0 Z M87.8357771,0.993197115 L86.9470881,3.3958295 L86.8499892,3.67049937 C86.606507,4.30334774 86.2455039,4.87838306 85.7859935,5.36458809 C85.3232,5.84942268 84.7706003,6.23164403 83.8995441,6.59432541 L83.8995441,6.59432541 L81.5656566,7.37808116 L83.8895499,8.28894128 L84.1581768,8.39098146 C84.7769384,8.64718316 85.3379379,9.02913522 85.8092224,9.51572858 C86.2760887,10.0038666 86.6404566,10.5858173 86.9783706,11.5004967 L86.9783706,11.5004967 L87.7347883,13.9047596 L88.61621,11.5018054 L88.7140195,11.2245017 C88.9597889,10.585785 89.3274144,10.0069299 89.7963969,9.52121137 C90.2664846,9.03436147 90.8274494,8.65348611 91.7102393,8.29783313 L91.7102393,8.29783313 L94.040404,7.5164664 L91.67339,6.59500492 L91.4051372,6.49438186 C90.7872463,6.24134148 90.2271304,5.86154648 89.7573211,5.3763736 C89.2864852,4.89011396 88.9184721,4.30944655 88.575702,3.39537741 L88.575702,3.39537741 L87.8357771,0.993197115 Z" id="Combined-Shape" fill-rule="nonzero"></path>
                        <path d="M17.4176234,7.44897959 C17.5868627,7.47733269 17.7476921,7.54536442 17.8882468,7.64828153 C18.002149,7.7306471 18.0995064,7.83384653 18.1749213,7.94964226 L18.2428223,8.06933166 L18.8285454,9.88926434 C18.9679029,10.3219362 19.2026791,10.7149863 19.5142223,11.0371923 C19.7219109,11.2519808 19.9598686,11.4313508 20.2209786,11.57033 L20.4210409,11.6669134 L22.2352437,12.2885483 C22.4716772,12.3644409 22.6777821,12.5179843 22.8221659,12.7254483 C22.9229801,12.8724582 22.9895105,13.0416479 23.0165739,13.2197557 C23.0436365,13.3978689 23.030596,13.5800503 22.9782868,13.752107 C22.9391432,13.881117 22.8787675,14.0017583 22.8001205,14.1088424 L22.7154926,14.2112152 L20.6557022,15.0479584 C20.238475,15.1923302 19.8593257,15.4354533 19.5485758,15.7580562 C19.3413054,15.9731235 19.1681734,16.2195818 19.0339554,16.4900482 L18.9406628,16.697284 L18.3421209,18.570613 C18.261049,18.8033839 18.1150143,19.0059256 17.9235945,19.1517871 C17.7343839,19.2921792 17.507496,19.3675623 17.2745569,19.367343 C17.0419506,19.3677861 16.8149408,19.2933468 16.6248583,19.1544088 C16.5108356,19.0710702 16.4134691,18.9669769 16.3381071,18.8503452 L16.2702779,18.7298382 L15.6847519,16.9056633 C15.5839613,16.5881369 15.4318609,16.2907146 15.234909,16.0260527 C14.977139,15.6799838 14.6491114,15.3995364 14.2739649,15.2024177 L14.0825722,15.1108843 L12.2806848,14.4959875 C12.055718,14.4158997 11.8605386,14.2648981 11.7226568,14.0643148 C11.622124,13.9173131 11.5557708,13.7481964 11.5287918,13.5701997 C11.5018249,13.3922115 11.5149587,13.2101783 11.5671668,13.0383269 C11.6063291,12.9094261 11.6666825,12.7888757 11.7452568,12.6818597 L11.8297948,12.5795471 L13.8903032,11.7461094 C14.2953991,11.5994904 14.6630623,11.3594022 14.9655346,11.0439832 C15.1671926,10.8336768 15.3363615,10.5935489 15.4686138,10.3303562 L15.5608119,10.1287425 L16.1716561,8.22572745 C16.2279661,8.05383956 16.3222047,7.89794673 16.4468582,7.77044781 C16.53842,7.67679588 16.6445327,7.60035273 16.7604249,7.54412394 L16.8794002,7.49474459 L17.4176234,7.44897959 Z M17.2989903,8.44217671 L16.6056609,10.3167191 L16.5205721,10.5544672 C16.3360985,11.0230047 16.0665939,11.4485869 15.7254499,11.8095644 C15.3816653,12.1697369 14.9722822,12.4550327 14.2945997,12.7419991 L14.2945997,12.7419991 L12.4747475,13.3530604 L14.2878144,14.0637295 L14.5202805,14.1531565 C14.9782745,14.3473145 15.3933969,14.6324692 15.7432746,14.9937271 C16.0971721,15.3637652 16.3732797,15.8051057 16.6294711,16.498604 L16.6294711,16.498604 L17.2194953,18.3741479 L17.9070788,16.4995622 L17.9928066,16.2595735 C18.1790894,15.786791 18.4535326,15.3584708 18.8016822,14.9978821 C19.1581044,14.6287354 19.5835215,14.3400994 20.2528279,14.0704421 L20.2528279,14.0704421 L22.0707071,13.460868 L20.2246014,12.7421624 L19.9924598,12.6539564 C19.5351173,12.4621196 19.1206832,12.1785712 18.7719205,11.8183883 C18.4149407,11.4496991 18.1360713,11.0093327 17.8761998,10.3163012 L17.8761998,10.3163012 L17.2989903,8.44217671 Z" id="Combined-Shape-Copy-2" fill-rule="nonzero"></path>
                    </g>
                    <polygon id="Path-7" fill="#D6D6D6" points="30.4589875 71.0265306 20.4382584 36.3924448 34.0937743 42.8012696 47.8873457 16.0029135 56.3259792 29.7959184 47.8873457 4.65561224 35.8123314 37.244898 33.7465185 40.9254263 15.090109 28.3061224 23.030303 72.1845267 30.4589875 72.1845267"></polygon>
                    <path d="M48.0828975,5.30392183 C48.2740529,5.24528348 48.4708795,5.26967746 48.6345769,5.35651988 C48.7982743,5.4433623 48.9288424,5.59265317 48.9874807,5.78380858 L48.9874807,5.78380858 L60.1279017,42.1005168 L79.2898068,28.37198 C79.4614264,28.2490232 79.6781629,28.2070933 79.8832577,28.2571708 C80.0774985,28.304598 80.2341269,28.426267 80.3303383,28.5846394 C80.4265496,28.7430118 80.4623439,28.9380876 80.4149167,29.1323284 L80.4149167,29.1323284 L69.8806584,72.2759274 L23.5620313,72.2759274 L14.45153,29.094797 C14.4087371,28.8919711 14.4549262,28.6805308 14.5783994,28.5140256 C14.6974982,28.3534195 14.8704204,28.2562922 15.0537195,28.2290912 C15.2370185,28.2018902 15.4306944,28.2446154 15.5913005,28.3637142 L15.5913005,28.3637142 L34.0890031,42.0808349 L47.6166707,5.74353658 C47.6952494,5.53246261 47.8675745,5.36997375 48.0828975,5.30392183 Z" id="Path-6" stroke="#363636" stroke-width="1.44814513"></path>
                </g>
            </g>
        </g>
    </g>
</svg>