<?xml version="1.0" encoding="utf-8"?>
<!-- Svg Vector Icons : http://www.onlinewebfonts.com/icon -->
<!DOCTYPE svg PUBLIC "-//W3C//DTD SVG 1.1//EN" "http://www.w3.org/Graphics/SVG/1.1/DTD/svg11.dtd">
<svg version="1.1" xmlns="http://www.w3.org/2000/svg" xmlns:xlink="http://www.w3.org/1999/xlink" x="0px" y="0px" viewBox="0 0 256 256" enable-background="new 0 0 256 256" xml:space="preserve">
<metadata> Svg Vector Icons : http://www.onlinewebfonts.com/icon </metadata>
<g><g><g><path fill="#000000" d="M80.5,11.2C57.5,16,39.6,34,34.9,57c-0.8,4.2-1.1,7.6-1.1,14.7v9.2H21.9H10v11.6v11.6h17.7h17.7v41.6v41.5h-7.4c-6.5,0-7.6,0.2-9.8,1.2c-4.2,2.2-4.9,3.7-11.9,24.8c-5.4,16.3-6.5,19.9-6.2,21.9c0.6,5.9,4.9,9.9,11,10.5c1.9,0.2,51.4,0.3,109.9,0.2l106.4-0.2l2.6-1.6c1.7-0.9,3.2-2.4,4.1-4c2.8-4.7,2.7-5.2-4.5-26.9c-7-21.1-7.7-22.5-11.9-24.8c-2.2-1.1-3.3-1.2-9.8-1.2h-7.4v-41.6v-41.6h17.7H246V92.6V80.9h-11.9h-11.9v-9.1c0-13.4-1.4-19.9-6.7-30.2c-7.9-15.6-22.9-26.9-40.2-30.4c-5.4-1.1-7.3-1.2-47.6-1.1C88.2,10.1,85.3,10.2,80.5,11.2z M175.2,35c10.6,4.2,17.9,11.5,21.9,22c1.3,3.4,1.4,4.7,1.7,13.8l0.2,10.1h-71h-71v-8.8c0-7,0.2-9.5,1.1-12.8C61,49.2,67.9,41,77.3,36.6c7-3.3,5.6-3.2,51.8-3.1l42.4,0.1L175.2,35z M92.5,145.7v41.5H80.6H68.7v-41.6v-41.6h11.9h11.9V145.7z M140.1,145.6l-0.2,41.4l-12,0.2l-12.1,0.1v-41.6v-41.6H128h12.2L140.1,145.6z M187.3,145.7v41.5h-11.9h-11.9v-41.6v-41.6h11.9h11.9V145.7z M216.1,215.9c0.9,3,1.9,5.8,2,6.1c0.2,0.6-18,0.7-89.7,0.7c-49.5,0-90.1-0.2-90.3-0.3c-0.2-0.2,0.6-2.9,1.6-6.1l1.9-5.8H128h86.3L216.1,215.9z"/></g></g></g>
</svg>