<!DOCTYPE svg PUBLIC "-//W3C//DTD SVG 1.1//EN" "http://www.w3.org/Graphics/SVG/1.1/DTD/svg11.dtd">
<!-- Uploaded to: SVG Repo, www.svgrepo.com, Transformed by: SVG Repo Mixer Tools -->
<svg fill="#ffffff" width="64px" height="64px" viewBox="-2.4 -2.4 28.80 28.80" id="idea-lamp" data-name="Flat Line" xmlns="http://www.w3.org/2000/svg" class="icon flat-line">
<g id="SVGRepo_bgCarrier" stroke-width="0" transform="translate(2.16,2.16), scale(0.82)">
<rect x="-2.4" y="-2.4" width="28.80" height="28.80" rx="0" fill="#30313F" strokewidth="0"/>
</g>
<g id="SVGRepo_tracerCarrier" stroke-linecap="round" stroke-linejoin="round"/>
<g id="SVGRepo_iconCarrier">
<path id="secondary" d="M11.27,3A6,6,0,0,0,7.74,13.22,4.13,4.13,0,0,1,9,16.12.49.49,0,0,0,9,16h6a.49.49,0,0,0,0,.12h0a4,4,0,0,1,1.19-2.83A6,6,0,0,0,11.27,3Z" style="fill: #30313F; stroke-width: 2;"/>
<path id="primary" d="M16.19,13.29A4,4,0,0,0,15,16.12V19a1,1,0,0,1-1,1H10a1,1,0,0,1-1-1V16.13a4.13,4.13,0,0,0-1.26-2.91,6,6,0,1,1,8.45.07ZM9,16a.57.57,0,0,1,0,.13V19a1,1,0,0,0,1,1h4a1,1,0,0,0,1-1V16.12A.49.49,0,0,1,15,16Zm4,4H11v1h2Z" style="fill: none; stroke: #ffffff; stroke-linecap: round; stroke-linejoin: round; stroke-width: 2;"/>
</g>
</svg>