<svg width="360" height="270" viewBox="0 0 360 270" fill="none" xmlns="http://www.w3.org/2000/svg">
<rect width="360" height="270" rx="8" fill="#F8F8F8"/>
<path fill-rule="evenodd" clip-rule="evenodd" d="M152 109.625C152 108.175 153.175 107 154.625 107H203.125C204.575 107 205.75 108.175 205.75 109.625V158.125C205.75 159.575 204.575 160.75 203.125 160.75H154.625C153.175 160.75 152 159.575 152 158.125V109.625ZM200.5 112.25V135.654L190.47 128.453C189.674 127.84 188.694 127.512 187.688 127.521C186.654 127.531 185.655 127.897 184.86 128.559C184.824 128.588 184.789 128.619 184.755 128.651L157.25 154.108V112.25H200.5ZM200.5 155.5H163.475L187.792 132.993L200.5 142.117V155.5ZM168.615 114.462C166.188 114.462 163.859 115.426 162.143 117.143C160.426 118.859 159.462 121.188 159.462 123.615C159.462 126.043 160.426 128.371 162.143 130.088C163.859 131.805 166.188 132.769 168.615 132.769C171.043 132.769 173.371 131.805 175.088 130.088C176.805 128.371 177.769 126.043 177.769 123.615C177.769 121.188 176.805 118.859 175.088 117.143C173.371 115.426 171.043 114.462 168.615 114.462ZM165.855 120.855C166.587 120.123 167.58 119.712 168.615 119.712C169.651 119.712 170.644 120.123 171.376 120.855C172.108 121.587 172.519 122.58 172.519 123.615C172.519 124.651 172.108 125.644 171.376 126.376C170.644 127.108 169.651 127.519 168.615 127.519C167.58 127.519 166.587 127.108 165.855 126.376C165.123 125.644 164.712 124.651 164.712 123.615C164.712 122.58 165.123 121.587 165.855 120.855Z" fill="#DCDCDC"/>
</svg>
