<?xml version="1.0" encoding="UTF-8"?>
<svg width="107px" height="96px" viewBox="0 0 107 96" version="1.1" xmlns="http://www.w3.org/2000/svg" xmlns:xlink="http://www.w3.org/1999/xlink">
    <title>Group 22 Copy 4</title>
    <defs>
        <linearGradient x1="19.4745139%" y1="100%" x2="80.0283045%" y2="0.814371176%" id="linearGradient-1">
            <stop stop-color="#53C1A1" offset="0%"></stop>
            <stop stop-color="#C7F1E5" offset="100%"></stop>
        </linearGradient>
        <linearGradient x1="21.6243359%" y1="100%" x2="77.9134976%" y2="0.814371176%" id="linearGradient-2">
            <stop stop-color="#53C1A1" offset="0%"></stop>
            <stop stop-color="#C7F1E5" offset="100%"></stop>
        </linearGradient>
        <linearGradient x1="46.5289654%" y1="100%" x2="53.4145004%" y2="0.814371176%" id="linearGradient-3">
            <stop stop-color="#53C1A1" offset="0%"></stop>
            <stop stop-color="#C7F1E5" offset="100%"></stop>
        </linearGradient>
    </defs>
    <g id="Page-1" stroke="none" stroke-width="1" fill="none" fill-rule="evenodd">
        <g id="d1" transform="translate(-265.000000, -609.000000)">
            <g id="Group-3-Copy" transform="translate(245.000000, 585.000000)">
                <g id="Group-22-Copy-4" transform="translate(20.000000, 24.000000)">
                    <ellipse id="Oval" fill="#DDF5EE" fill-rule="nonzero" cx="48.077325" cy="48" rx="48.077325" ry="48"></ellipse>
                    <g id="spot_120/rocket" transform="translate(0.335423, 8.930233)">
                        <path d="M88.2381534,24.5129221 C89.6326845,24.5129221 90.8987446,25.0577995 91.830103,25.9447264 C92.7630483,26.8331645 93.3601815,28.0649177 93.4123938,29.4349006 L93.4123938,29.4349006 L93.454757,30.5464551 L94.2863997,29.8077275 C94.9631401,29.2065957 95.7255998,28.8543778 96.5739163,28.8543778 C97.3986592,28.8543778 98.1455664,29.1847698 98.6861287,29.7196904 C99.2246854,30.2526263 99.5582723,30.9887366 99.5582723,31.8021033 C99.5582723,32.1739785 99.4886996,32.5297771 99.3614997,32.8573468 C99.2971622,33.0230311 99.2170716,33.1840951 99.1212262,33.3383106 C99.2958231,33.3876505 99.4673063,33.4502304 99.6340143,33.5259496 C100.106402,33.7405089 100.52457,34.0533576 100.861917,34.4375346 C102.004725,34.2360928 102.559495,34.0641246 103.154782,34.0641246 C103.979525,34.0641246 104.726432,34.3945166 105.266994,34.9294373 C105.805551,35.4623732 106.139138,36.1984834 106.139138,37.0118501 C106.139138,37.8252168 105.805551,38.561327 105.266994,39.094263 C104.726432,39.6291836 103.979525,39.9595756 103.154782,39.9595756 C102.465876,39.9595756 101.831272,39.7291463 101.32589,39.3413926 C99.9876641,40.0078321 99.0940058,40.3937212 98.1094516,40.3937212 C97.685714,40.3937212 97.2788181,40.3223693 96.9004686,40.1908818 C95.7351168,41.4791796 94.9283927,42.345023 93.9402026,42.9475338 C92.9837203,43.530712 91.8570778,43.8668858 90.6511374,43.8668858 C89.3111324,43.8668858 88.0690417,43.4517504 87.0494783,42.7438378 C85.7130531,43.1738126 84.8125148,43.4327402 83.8509097,43.4327402 C82.7852552,43.4327402 81.7946097,43.1146816 80.9710394,42.5687523 C80.1234025,42.0068698 79.4525111,41.2039321 79.0594808,40.2586882 C78.9727378,40.05007 78.900454,39.8367436 78.8425657,39.6203121 C78.6794516,39.768696 78.5020828,39.8969052 78.314327,40.0038087 C77.8779878,40.2522494 77.3713243,40.3937212 76.8313198,40.3937212 C76.0065769,40.3937212 75.2596697,40.0633292 74.7191074,39.5284085 C74.1805508,38.9954726 73.8469639,38.2593624 73.8469639,37.4459957 C73.8469639,36.632629 74.1805508,35.8965188 74.7191074,35.3635828 C75.2596697,34.8286622 76.0065769,34.4982702 76.8313198,34.4982702 C77.6383122,34.4982702 78.3707827,34.814581 78.9083421,35.3293276 C79.0643209,35.478687 79.2043196,35.6451654 79.3254213,35.8259197 C79.4352845,35.6313869 79.5576898,35.4440753 79.6919126,35.2653268 C80.5659611,34.1013303 81.9284788,33.3172993 83.4794381,33.2087807 C83.8546824,33.1825254 84.22451,33.1969631 84.5839851,33.248498 C84.317776,32.9894364 84.0830651,32.7034754 83.8824167,32.3968884 C83.3617604,31.6013356 83.0601756,30.6511888 83.0601756,29.6313754 C83.0601756,28.2185788 83.639292,26.9397866 84.5748161,26.0140262 C85.5123459,25.0862811 86.8076586,24.5129221 88.2381534,24.5129221 Z" id="Combined-Shape-Copy" stroke="#AEE6D5" stroke-width="1.05087808" transform="translate(89.993051, 34.189904) scale(-1, 1) translate(-89.993051, -34.189904) "></path>
                        <g id="Group" transform="translate(18.538206, 8.466967)">
                            <path d="M14.1608018,17.2208149 C13.7359179,17.2337645 13.3927255,17.2640711 13.1312248,17.3117347 C7.91929753,18.2617087 1.67280179,24.9521255 3.50269509,31.8689112 C3.50269509,31.8689112 3.50269509,31.8689112 3.50269509,31.8689112 C3.57906016,32.1575624 3.87496428,32.3296542 4.16361544,32.2532892 C4.2419285,32.2325708 4.31458462,32.1945185 4.37621397,32.1419446 C4.5933606,31.9566436 4.76897369,31.8020302 4.90302321,31.6780695 C7.78725385,29.0109098 11.0053197,27.7222744 14.5572207,27.8121631 C14.9156664,27.8206211 15.213078,27.5368762 15.2215074,27.1784298 C15.2218325,27.1646037 15.2217157,27.1507707 15.2211077,27.136954 L14.8283808,17.8447923 C14.8148346,17.4888243 14.5168743,17.2103725 14.1608018,17.2208149 Z" id="Path-2-Copy-4" stroke="#363636" stroke-width="1.05087808" fill="url(#linearGradient-1)" stroke-linejoin="round" transform="translate(9.214075, 24.939980) rotate(32.000000) translate(-9.214075, -24.939980) "></path>
                            <path d="M39.6564449,34.2494637 C34.1494815,33.7530885 25.8903926,42.0386968 28.7432379,50.2015152 C32.5790819,46.601095 36.3958723,44.9111898 40.1936089,45.1317996 C40.022509,40.8618712 39.8434543,37.234426 39.6564449,34.2494637 Z" id="Path-2-Copy-5" stroke="#363636" stroke-width="1.05087808" fill="url(#linearGradient-2)" stroke-linejoin="round" transform="translate(34.176988, 42.214866) scale(-1, 1) rotate(-38.000000) translate(-34.176988, -42.214866) "></path>
                            <path d="M43.0259856,0.353385906 L37.7985296,2.02366385 C30.1506567,4.46721861 23.7804497,9.79235204 20.064244,16.8516211 L20.064244,16.8516211 L12.6308256,30.9651704 C11.0662134,33.9355512 11.9341,37.5943978 14.6696543,39.5640087 L14.6696543,39.5640087 L20.5364468,43.7895923 C23.4179913,45.8639698 27.4261775,45.3930192 29.7388636,42.7070048 L29.7388636,42.7070048 L40.1988099,30.5600731 C45.1977157,24.7530136 48.2121617,17.5281136 48.8112249,9.91906966 L48.8112249,9.91906966 L49.1847585,5.17264663 C49.2320794,4.56500071 49.1605946,3.95336369 48.9703039,3.37265774 L48.9703039,3.37265774 C48.3259334,1.38907796 46.4713544,0.125892854 44.4758194,0.125892854 L44.4758194,0.125892854 C43.9955619,0.125892854 43.5062431,0.199728318 43.0259856,0.353385906 L43.0259856,0.353385906 Z" id="Clip-15" stroke="#363636" stroke-width="1.00582014" fill="#FFFFFF" transform="translate(30.527505, 22.603346) rotate(-360.000000) translate(-30.527505, -22.603346) "></path>
                            <path d="M22.276619,12.7535798 C15.4523322,25.5380907 12.039182,32.7270707 12.039182,34.3225154 C12.039182,35.7094248 15.2726477,42.0964485 23.148064,45.0807982 C23.9354042,45.3791334 27.0429165,45.3409417 28.3870332,43.2705554 C23.148064,35.5327634 23.4102776,25.9546748 27.7650316,19.2767989 C32.7417872,12.8102091 39.8616318,7.52087453 48.4790811,2.67367606 L44.4379316,0 C39.9988227,1.55054475 37.1857425,2.32681491 35.999698,2.32681491 C34.8136534,2.32681491 30.2396294,5.80207062 22.276619,12.7535798 Z" id="Clip-2" fill-opacity="0.1" fill="#363636"></path>
                            <path d="M43.0259856,0.353385906 L37.7985296,2.02366385 C30.1506567,4.46721861 23.7804497,9.79235204 20.064244,16.8516211 L20.064244,16.8516211 L12.6308256,30.9651704 C11.0662134,33.9355512 11.9341,37.5943978 14.6696543,39.5640087 L14.6696543,39.5640087 L20.5364468,43.7895923 C23.4179913,45.8639698 27.4261775,45.3930192 29.7388636,42.7070048 L29.7388636,42.7070048 L40.1988099,30.5600731 C45.1977157,24.7530136 48.2121617,17.5281136 48.8112249,9.91906966 L48.8112249,9.91906966 L49.1847585,5.17264663 C49.2320794,4.56500071 49.1605946,3.95336369 48.9703039,3.37265774 L48.9703039,3.37265774 C48.3259334,1.38907796 46.4713544,0.125892854 44.4758194,0.125892854 L44.4758194,0.125892854 C43.9955619,0.125892854 43.5062431,0.199728318 43.0259856,0.353385906 L43.0259856,0.353385906 Z" id="Clip-15" stroke="#363636" stroke-width="0.748338829" transform="translate(30.527505, 22.603346) rotate(-360.000000) translate(-30.527505, -22.603346) "></path>
                            <path d="M21.5292528,26.4583067 L20.4469131,27.5762798 C19.3051875,28.7555939 18.6756269,30.338228 18.6953244,31.9795479 L18.7744533,38.5730738 L18.7744533,38.5730738 L21.1901922,45.489872 C21.3235305,45.871649 21.7411139,46.0730485 22.122891,45.9397102 C22.3750349,45.8516472 22.5592292,45.6332823 22.6035327,45.3699027 L23.895896,37.6869462 C24.345218,35.015777 24.1769676,32.2771908 23.4040421,29.6811127 L22.5164201,26.699796 C22.4236459,26.3881889 22.0958301,26.2107898 21.784223,26.303564 C21.6873589,26.3324032 21.5995507,26.3856944 21.5292528,26.4583067 Z" id="Path-3-Copy" stroke="#363636" stroke-width="1.05087808" fill="url(#linearGradient-3)" stroke-linejoin="round" transform="translate(21.621704, 36.958698) rotate(34.000000) translate(-21.621704, -36.958698) "></path>
                            <ellipse id="Oval-Copy-34" stroke="#363636" stroke-width="1.00582014" fill="#AFBFBD" transform="translate(36.203077, 15.285693) rotate(36.000000) translate(-36.203077, -15.285693) " cx="36.2030774" cy="15.2856927" rx="6.02226522" ry="6.00548125"></ellipse>
                        </g>
                        <path d="M30.8296503,54.8372581 C25.1800038,65.3281539 21.2288469,71.1667314 18.9761796,72.3529906 C15.5971787,74.1323792 10.0519341,72.3296261 10.3088824,66.969822 C10.5658307,61.6100179 18.6159875,63.1127013 17.1065831,67.1198569" id="Path-5" stroke="#AEE6D5" stroke-width="1.05087808"></path>
                        <path d="M41.8776388,60.3541472 C38.222769,68.6470281 35.3631117,73.4104105 33.2986668,74.6442941 C30.2019995,76.4951197 26.6589217,74.7352738 26.8134464,71.5781693 C26.9679712,68.4210648 31.8847526,67.3110726 31.8630282,70.560652" id="Path-5-Copy" stroke="#AEE6D5" stroke-width="1.05087808" transform="translate(34.343102, 67.876248) scale(-1, 1) rotate(-60.000000) translate(-34.343102, -67.876248) "></path>
                        <path d="M14.9166285,0.525439039 C16.3111596,0.525439039 17.5772197,1.07031654 18.5085781,1.9572434 C19.4415234,2.84568144 20.0386567,4.07743471 20.090869,5.44741755 L20.090869,5.44741755 L20.1332322,6.55897204 L20.9648748,5.82024444 C21.6416152,5.2191127 22.4040749,4.86689474 23.2523915,4.86689474 C24.0771343,4.86689474 24.8240416,5.19728676 25.3646038,5.7322074 C25.9031605,6.26514333 26.2367474,7.00125359 26.2367474,7.81462026 C26.2367474,8.18649548 26.1671748,8.54229413 26.0399749,8.86986383 C25.9756374,9.03554804 25.8955467,9.19661206 25.7997013,9.35082763 C25.9742982,9.4001675 26.1457815,9.4627474 26.3124894,9.53846654 C26.7848768,9.75302593 27.2030452,10.0658746 27.5403922,10.4500516 C28.6832,10.2486098 29.2379704,10.0766416 29.833257,10.0766416 C30.6579999,10.0766416 31.4049071,10.4070336 31.9454694,10.9419542 C32.484026,11.4748902 32.8176129,12.2110004 32.8176129,13.0243671 C32.8176129,13.8377338 32.484026,14.573844 31.9454694,15.10678 C31.4049071,15.6417006 30.6579999,15.9720926 29.833257,15.9720926 C29.1443513,15.9720926 28.5097468,15.7416633 28.0043651,15.3539096 C26.6661392,16.0203491 25.7724809,16.4062382 24.7879268,16.4062382 C24.3641891,16.4062382 23.9572932,16.3348863 23.5789437,16.2033988 C22.413592,17.4916966 21.6068678,18.35754 20.6186778,18.9600508 C19.6621955,19.543229 18.5355529,19.8794027 17.3296125,19.8794027 C16.1565776,19.8794027 15.0585712,19.5613356 14.1192042,19.0071201 C13.1477194,18.4339555 12.345777,17.6085298 11.8061631,16.6219526 C11.0289418,16.3884981 10.7812594,16.4062382 10.5293848,16.4062382 C9.09935184,16.4062382 7.80441375,15.8332495 6.86695576,14.9060325 C6.68454512,14.7256146 6.51539658,14.5315154 6.36120403,14.3255826 C6.28682063,14.5629135 6.18284078,14.790466 6.05121493,15.0022082 C5.52714253,15.8452662 4.58436051,16.4062382 3.50979494,16.4062382 C2.68505207,16.4062382 1.93814486,16.0758462 1.39758257,15.5409255 C0.859025939,15.0079896 0.525439039,14.2718793 0.525439039,13.4585127 C0.525439039,12.645146 0.859025939,11.9090357 1.39758257,11.3760998 C1.93814486,10.8411792 2.68505207,10.5107871 3.50979494,10.5107871 C3.93613961,10.5107871 4.34169266,10.5989225 4.70867914,10.7581477 C4.93578338,10.8566819 5.15309612,10.9846002 5.35477696,11.1414782 C5.36147219,10.8851849 5.38780943,10.6275113 5.43471918,10.3704497 C5.6170174,9.37147054 6.0932443,8.47358083 6.77100816,7.76688755 C7.4527839,7.05601114 8.33855163,6.53838244 9.33558031,6.30591172 C9.7403237,4.31543068 10.3120221,3.0024827 11.2422591,2.05693246 C12.179694,1.10406585 13.4799963,0.525439039 14.9166285,0.525439039 Z" id="Combined-Shape" stroke="#AEE6D5" stroke-width="1.05087808"></path>
                    </g>
                </g>
            </g>
        </g>
    </g>
</svg>