<svg xmlns="http://www.w3.org/2000/svg" xmlns:xlink="http://www.w3.org/1999/xlink" width="60" height="30" viewBox="0 0 60 30">
  <defs>
    <path id="yad1_logo-a" d="M4.0618876,9.02938239 C-1.16814173,16.6043383 -1.37506255,25.3903236 3.60053862,28.6520294 L3.60053862,28.6520294 C7.43147704,31.1635589 13.2173421,29.670353 18.0633539,25.3924412 L18.0633539,25.3924412 C18.6626061,26.7407206 19.5655093,27.8593677 20.7745709,28.6520294 L20.7745709,28.6520294 C24.471565,31.0755442 29.9886178,29.7701471 34.7250987,25.8315883 L34.7250987,25.8315883 C35.3178847,26.9843824 36.1509785,27.94725 37.2262278,28.6520294 L37.2262278,28.6520294 C42.201697,31.9137353 50.474175,28.4210736 55.7043363,20.8451912 L55.7043363,20.8451912 C60.9344976,13.2694412 61.1414184,4.48425003 56.1658172,1.22254415 L56.1658172,1.22254415 C52.4702747,-1.20229408 46.9524301,0.104294151 42.2151574,4.04338239 L42.2151574,4.04338239 C41.6225034,2.89045592 40.7894096,1.92745592 39.7144243,1.22254415 L39.7144243,1.22254415 L39.7124448,1.22254415 C35.8822982,-1.29017644 30.0968289,0.203955916 25.2509492,4.48213239 L25.2509492,4.48213239 C24.2258465,2.52185297 22.5410518,1.22254415 22.5410518,1.22254415 L22.5410518,1.22254415 C21.2757732,0.39269121 19.7978993,-9.59232693e-14 18.2106266,-9.59232693e-14 L18.2106266,-9.59232693e-14 C13.5551721,0.000397092257 7.9622395,3.38055886 4.0618876,9.02938239"/>
    <linearGradient id="yad1_logo-b" x1="100%" x2="0%" y1="37.426%" y2="62.574%">
      <stop offset="0%" stop-color="#0CD9E5"/>
      <stop offset="100%" stop-color="#0495FF"/>
    </linearGradient>
  </defs>
  <g fill="none" fill-rule="evenodd">
    <mask id="yad1_logo-c" fill="#fff">
      <use xlink:href="#yad1_logo-a"/>
    </mask>
    <path fill="url(#yad1_logo-b)" d="M4.07178859,9.08081778 C-1.17098911,16.698924 -1.37841431,25.5349582 3.60931506,28.8152442 L3.60931506,28.8152442 C7.44959153,31.3410804 13.2495599,29.8393685 18.1073839,25.5370879 L18.1073839,25.5370879 C18.7080968,26.8930477 19.6132009,28.0180671 20.8252096,28.8152442 L20.8252096,28.8152442 C24.5312153,31.2525643 30.0617161,29.9397311 34.8097424,25.9787365 L34.8097424,25.9787365 C35.4039732,27.1380975 36.2390978,28.10645 37.316968,28.8152442 L37.316968,28.8152442 C42.3045651,32.0955302 50.5972076,28.5829727 55.8401175,20.9639347 L55.8401175,20.9639347 C61.0830275,13.3450299 61.2904527,4.50979432 56.3027234,1.22950831 L56.3027234,1.22950831 C52.5981728,-1.20914289 47.0668783,0.104888257 42.3180583,4.0664153 L42.3180583,4.0664153 C41.7239597,2.90692124 40.8888352,1.93843556 39.8112296,1.22950831 L39.8112296,1.22950831 L39.8092453,1.22950831 C35.9697625,-1.29752586 30.170191,0.20511774 25.3124993,4.50766461 L25.3124993,4.50766461 C24.2848979,2.53621857 22.5959964,1.22950831 22.5959964,1.22950831 L22.5959964,1.22950831 C21.3276337,0.394928154 19.8461574,-9.59232693e-14 18.2550156,-9.59232693e-14 L18.2550156,-9.59232693e-14 C13.5882133,0.000399354272 7.98164774,3.39981603 4.07178859,9.08081778" mask="url(#yad1_logo-c)"/>
    <path fill="#FFF" d="M19.7756237 10.5415412C19.182046 10.2279971 18.4477938 10.4561736 18.1350372 11.0512324L15.537046 15.9960706 12.9175445 11.0479236C12.6030723 10.4537912 11.8678964 10.2279971 11.2755064 10.5433942 10.6832483 10.8587912 10.4579844 11.5961294 10.7724565 12.1902618L14.1672512 18.6030265 13.7387615 19.4187177C13.3135709 20.2338794 12.4790254 20.7601147 11.5608143 20.7920118 10.890565 20.8153059 10.3660049 21.3791294 10.3892307 22.0514824 10.4119287 22.7094089 10.9508729 23.2271736 11.6021193 23.2271736 11.6163715 23.2271736 11.6306237 23.2269089 11.6450078 23.2265118 13.4344506 23.1643059 15.0613128 22.1379089 15.8891281 20.5511294L20.2838201 12.186953C20.5964448 11.5918942 20.3689375 10.8552177 19.7756237 10.5415412M25.3539081 17.9597647C23.9457116 17.9597647 22.7999932 16.8106765 22.7999932 15.3984706 22.7999932 13.9861324 23.9457116 12.8370442 25.3539081 12.8370442 26.7621046 12.8370442 27.9078231 13.9861324 27.9078231 15.3984706 27.9078231 16.8106765 26.7621046 17.9597647 25.3539081 17.9597647L25.3539081 17.9597647zM30.3365034 15.3984706C30.3365034 12.6428824 28.1012835 10.4012206 25.3539081 10.4012206 22.6065328 10.4012206 20.3713128 12.6428824 20.3713128 15.3984706 20.3713128 18.1539265 22.6065328 20.3957206 25.3539081 20.3957206 26.3190987 20.3957206 27.2205504 20.1181765 27.9846266 19.6395883 28.1563128 20.103353 28.6001105 20.4343677 29.1221633 20.4343677 29.7928084 20.4343677 30.3365034 19.8890736 30.3365034 19.2164559L30.3365034 15.3984706zM36.2179375 17.9597647C34.809741 17.9597647 33.6640225 16.8106765 33.6640225 15.3984706 33.6640225 13.9861324 34.809741 12.8370442 36.2179375 12.8370442 37.626002 12.8370442 38.7717204 13.9861324 38.7717204 15.3984706 38.7717204 16.8106765 37.626002 17.9597647 36.2179375 17.9597647M39.9861926 6.65245592L39.9861926 6.65245592C39.3154155 6.65245592 38.7717204 7.19775003 38.7717204 7.87050003L38.7717204 11.1095736C38.0244037 10.6602353 37.1509287 10.4012206 36.2179375 10.4012206 33.4704301 10.4012206 31.2352102 12.6428824 31.2352102 15.3984706 31.2352102 18.1539265 33.4704301 20.3957206 36.2179375 20.3957206 37.1831281 20.3957206 38.0845797 20.1181765 38.8486559 19.6395883 39.0202102 20.103353 39.4641398 20.4343677 39.9861926 20.4343677 40.6568377 20.4343677 41.2005328 19.8890736 41.2005328 19.2164559L41.2005328 7.87050003C41.2005328 7.19775003 40.6568377 6.65245592 39.9861926 6.65245592" mask="url(#yad1_logo-c)"/>
    <path fill="#FFF" fill-rule="nonzero" stroke="#FFF" stroke-width=".6" d="M46.537099,18.7279706 L46.537099,10.8303134 C45.0718007,11.9585558 44.0853351,12.5226685 43.5776727,12.5226685 C43.3353792,12.5226685 43.1204913,12.4257568 42.9330023,12.2319306 C42.7455133,12.0381043 42.6517703,11.8139057 42.6517703,11.5593279 C42.6517703,11.2642491 42.7440711,11.0472827 42.9286757,10.9084221 C43.1132802,10.7695615 43.4392176,10.5902025 43.9064978,10.3703399 C44.6045336,10.040546 45.1626655,9.69339969 45.5809101,9.32889061 C45.9991547,8.96438153 46.3698004,8.55648463 46.6928583,8.10518767 C47.0159162,7.65389072 47.2264775,7.37617368 47.3245487,7.27202823 C47.4226198,7.16788277 47.6072216,7.11581083 47.8783595,7.11581083 C48.1841107,7.11581083 48.4292849,7.23441915 48.6138894,7.47163934 C48.7984939,7.70885954 48.8907948,8.03575564 48.8907948,8.45233744 L48.8907948,18.3894996 C48.8907948,19.5524572 48.4956317,20.1339272 47.7052936,20.1339272 C47.3533912,20.1339272 47.0707198,20.0153189 46.8572708,19.7780987 C46.6438219,19.5408785 46.537099,19.1908393 46.537099,18.7279706 Z" mask="url(#yad1_logo-c)"/>
  </g>
</svg>
