<svg xmlns="http://www.w3.org/2000/svg" width="161.331" height="33.405" viewBox="0 0 161.331 33.405">
  <g id="white_logo" data-name="white logo" transform="translate(-190 -99.595)">
    <g id="Layer_9" data-name="Layer 9" transform="translate(190 107.024)">
      <path id="Path_3478" data-name="Path 3478" d="M25.618,16.582,20.761,27.333l-5.4-12.573L10.1,27.338,5.169,16.582H0L10.157,37.187l5.214-12.064,5.355,12.049,10.111-20.59Z" transform="translate(0 -14.76)" fill="#00509e"/>
    </g>
    <g id="Layer_8" data-name="Layer 8" transform="translate(219.695 108.332)">
      <path id="Path_3479" data-name="Path 3479" d="M73.41,30.264c-1.127,2.225-2.657,3.3-4.681,3.3a4.686,4.686,0,0,1-3.689-1.585,5.457,5.457,0,0,1-1.334-3.352h13.64l.055-1.606a10.869,10.869,0,0,0-.891-4.53c-1.394-3.407-4.142-5.134-8.169-5.134a9.75,9.75,0,0,0-3.835.74,8.6,8.6,0,0,0-4.731,5A10.212,10.212,0,0,0,59,26.817a11.7,11.7,0,0,0,2.517,7.842,8.556,8.556,0,0,0,6.81,3.06,10,10,0,0,0,9.019-5.184l.287-.5-3.961-2.27Zm-9.447-5.355a4.575,4.575,0,0,1,1.45-2.345,4.645,4.645,0,0,1,3.151-1.087,3.975,3.975,0,0,1,2.919,1.143,4.8,4.8,0,0,1,1.248,2.29Z" transform="translate(-59 -17.359)" fill="#00509e"/>
    </g>
    <g id="Layer_7" data-name="Layer 7" transform="translate(276.886 99.595)">
      <path id="Path_3480" data-name="Path 3480" d="M182.218,8.758A6.715,6.715,0,0,0,177.16,10.7V0h-4.53V28.477h4.53V18.023c0-4.565,2.069-5.093,3.624-5.093a4.094,4.094,0,0,1,2.889.825,3.915,3.915,0,0,1,.841,2.854V28.477h4.57V16.609c0-6.488-3.735-7.852-6.865-7.852" transform="translate(-172.63)" fill="#00509e"/>
    </g>
    <g id="Layer_6" data-name="Layer 6" transform="translate(295.599 108.332)">
      <path id="Path_3481" data-name="Path 3481" d="M224.21,30.264c-1.127,2.225-2.663,3.3-4.681,3.3a4.686,4.686,0,0,1-3.7-1.585,5.457,5.457,0,0,1-1.334-3.352H228.13l.06-1.606a10.869,10.869,0,0,0-.891-4.53c-1.394-3.407-4.142-5.134-8.169-5.134a9.75,9.75,0,0,0-3.835.74,8.6,8.6,0,0,0-4.731,5,10.213,10.213,0,0,0-.755,3.694,11.708,11.708,0,0,0,2.517,7.842,8.556,8.556,0,0,0,6.815,3.06,10,10,0,0,0,9.019-5.184l.287-.5-3.976-2.25Zm-9.447-5.355a4.53,4.53,0,0,1,4.615-3.433,3.975,3.975,0,0,1,2.919,1.143,4.8,4.8,0,0,1,1.248,2.29Z" transform="translate(-209.81 -17.359)" fill="#00509e"/>
    </g>
    <g id="Layer_5" data-name="Layer 5" transform="translate(315.766 108.425)">
      <path id="Path_3482" data-name="Path 3482" d="M260.258,17.548a10.454,10.454,0,0,0-5.174,1.334,10.067,10.067,0,0,0-5.2,8.914,9.6,9.6,0,0,0,1.429,5.129,9.932,9.932,0,0,0,3.845,3.584,10.909,10.909,0,0,0,5.1,1.233,11.483,11.483,0,0,0,5.149-1.153l.307-.151v-6.08l-.941.936a8.186,8.186,0,0,1-2.184,1.666,6.109,6.109,0,0,1-2.642.5A5.033,5.033,0,0,1,257,32.556a5.742,5.742,0,0,1-2.517-5.109,5.535,5.535,0,0,1,1.616-3.911,4.893,4.893,0,0,1,3.73-1.711,6.04,6.04,0,0,1,4.912,2.275l.971,1.158V18.881l-.292-.156a10.893,10.893,0,0,0-5.164-1.178" transform="translate(-249.879 -17.545)" fill="#00509e"/>
    </g>
    <g id="Layer_4" data-name="Layer 4" transform="translate(333.911 99.605)">
      <path id="Path_3483" data-name="Path 3483" d="M294.376,17.434l8.315-8.174H296.52l-6.02,6.11V.02h-4.57V28.487h4.57V21.129l.594-.589,6.271,7.947h5.984Z" transform="translate(-285.93 -0.02)" fill="#00509e"/>
    </g>
    <g id="Layer_3" data-name="Layer 3" transform="translate(240.863 99.6)">
      <path id="Path_3484" data-name="Path 3484" d="M124.623,23.585a9.724,9.724,0,1,1,0-13.755l.383.383,4.932-4.932-.377-.383a16.7,16.7,0,1,0,0,23.625h0l.377-.377-4.932-4.932Z" transform="translate(-101.056 -0.01)" fill="#00509e"/>
    </g>
    <g id="Layer_2-2" data-name="Layer 2-2" transform="translate(266.07 106.53)">
      <path id="Path_3485" data-name="Path 3485" d="M156.173,13.8l-5.033,5.033a9.75,9.75,0,0,1,0,9.427l5.033,5.033a16.67,16.67,0,0,0,0-19.508" transform="translate(-151.14 -13.78)" fill="#ed1c24"/>
    </g>
  </g>
</svg>
