<?xml version="1.0" encoding="UTF-8"?>
<svg width="110px" height="109px" viewBox="0 0 110 109" version="1.1" xmlns="http://www.w3.org/2000/svg" xmlns:xlink="http://www.w3.org/1999/xlink">
    <title>Artboard Copy 2</title>
    <g id="Artboard-Copy-2" stroke="none" stroke-width="1" fill="none" fill-rule="evenodd">
        <g id="Group">
            <rect id="Rectangle" x="0" y="0" width="110" height="110"></rect>
            <g id="Group-21" transform="translate(32.000000, 20.000000)">
                <polygon id="Path-8" stroke="#363636" stroke-width="1.3" fill="#FFFFFF" points="9.49379411 36 0 65.9014212 9.49379411 61.444742 13.8433134 70 24 40.776223"></polygon>
                <polygon id="Path-8-Copy" stroke="#363636" stroke-width="1.3" fill="#FFFFFF" transform="translate(34.000000, 50.000000) scale(-1, 1) translate(-34.000000, -50.000000) " points="31.4937941 33 22 62.9014212 31.4937941 58.444742 35.8433134 67 46 37.776223"></polygon>
                <ellipse id="Oval" stroke="#363636" stroke-width="1.3" fill="#EEEEEE" cx="23.5" cy="22" rx="21.85" ry="21.35"></ellipse>
                <path d="M23.5579105,44 C29.2424596,44 23.6641197,41.0984579 20.3353519,37.7142857 C16.3687148,33.6816275 13.8902346,28.6063077 13.8902346,22 C13.8902346,15.3129513 17.0648069,11.8962775 20.3353519,6.28571429 C22.3669958,2.80046425 29.1596711,0 23.5579105,0 C11.0995205,0 1,9.8497355 1,22 C1,34.1502645 11.0995205,44 23.5579105,44 Z" id="Oval-Copy-2" fill="#D6D6D6"></path>
                <ellipse id="Oval-Copy-3" stroke="#363636" stroke-width="1.3" cx="23.5" cy="22" rx="21.85" ry="21.35"></ellipse>
                <circle id="Oval-Copy" stroke="#363636" stroke-width="1.3" fill="#FFFFFF" cx="24" cy="22" r="15.35"></circle>
                <path d="M23.4407014,14.8145918 C23.6075847,14.8361647 23.6373593,14.8659393 23.6543125,14.9030724 L23.6543125,14.9030724 L25.3799404,18.6827694 C25.5939026,19.1514176 26.0376396,19.4738114 26.5494685,19.5324813 L26.5494685,19.5324813 L30.6774223,20.0056604 C30.7239608,20.010995 30.7639312,20.034688 30.7909333,20.068682 C30.8179354,20.1026759 30.8319693,20.1469709 30.8266347,20.1935094 C30.821986,20.2340638 30.8028695,20.271582 30.7727927,20.2991802 L30.7727927,20.2991802 L27.7113356,23.1083404 C27.3317426,23.4566509 27.1622502,23.978295 27.2646156,24.4832032 L27.2646156,24.4832032 L28.0902035,28.555341 C28.0995111,28.6012501 28.0893292,28.6465858 28.0653432,28.682771 C28.0413571,28.7189563 28.0035668,28.7459912 27.9576576,28.7552988 C27.9176515,28.7634097 27.8760623,28.7568226 27.8405206,28.7367462 L27.8405206,28.7367462 L24.2228082,26.6932057 C23.7742445,26.4398252 23.2257555,26.4398252 22.7771918,26.6932057 L22.7771918,26.6932057 L19.1594794,28.7367462 C19.1186934,28.759785 19.0724303,28.7641109 19.0306039,28.7524807 C18.9887776,28.7408504 18.9513881,28.713264 18.9283492,28.6724779 C18.9082728,28.6369363 18.9016857,28.595347 18.9097965,28.555341 L18.9097965,28.555341 L19.7353844,24.4832032 C19.8377498,23.978295 19.6682574,23.4566509 19.2886644,23.1083404 L19.2886644,23.1083404 L16.2272073,20.2991802 C16.1926925,20.2675098 16.1742822,20.2248477 16.1724182,20.1814745 C16.1705541,20.1381014 16.1852364,20.0940171 16.2169068,20.0595023 C16.244505,20.0294255 16.2820232,20.010309 16.3225777,20.0056604 L16.3225777,20.0056604 L20.4505315,19.5324813 C20.9623604,19.4738114 21.4060974,19.1514176 21.6200596,18.6827694 L21.6200596,18.6827694 L23.3456875,14.9030724 C23.3651422,14.8604602 23.4000271,14.8297676 23.4407014,14.8145918 Z" id="Star" stroke="#363636" stroke-width="1.3" fill="#EC5972"></path>
            </g>
        </g>
    </g>
</svg>