<svg width="52" height="52" viewBox="0 0 52 52" fill="none" xmlns="http://www.w3.org/2000/svg">
<path fill-rule="evenodd" clip-rule="evenodd" d="M34.3177 6H11.6808C8.5434 6 6 8.45193 6 11.4765V32.5221C6 35.5469 8.54317 37.9992 11.6808 38H34.3177C37.456 38 40 35.5475 40 32.5221V11.4765C39.9992 8.45171 37.4554 6 34.3177 6Z" stroke="#DCDCDC" stroke-width="2" stroke-linecap="round" stroke-linejoin="round"/>
<path d="M6 32V32L12.3319 26.0031C12.747 25.6102 13.4197 25.6102 13.8346 26.0031L18.75 30.6583L30.7486 19.2947C31.1636 18.9018 31.8364 18.9018 32.2513 19.2947L40 26.6333" stroke="#DCDCDC" stroke-width="2" stroke-linecap="round" stroke-linejoin="round"/>
<path fill-rule="evenodd" clip-rule="evenodd" d="M15.5 20C13.0147 20 11 17.9853 11 15.5C11 13.0147 13.0147 11 15.5 11C17.9853 11 20 13.0147 20 15.5C20 17.9853 17.9853 20 15.5 20Z" stroke="#DCDCDC" stroke-width="2" stroke-linecap="round" stroke-linejoin="round"/>
<circle cx="36" cy="37" r="12.75" fill="#FF7100" stroke="white" stroke-width="1.5"/>
<mask id="path-5-outside-1_2490_42188" maskUnits="userSpaceOnUse" x="30.1667" y="31.1667" width="12" height="12" fill="black">
<rect fill="white" x="30.1667" y="31.1667" width="12" height="12"/>
<path d="M36.0001 32.1667C36.2532 32.1667 36.4624 32.3548 36.4955 32.5988L36.5001 32.6667V36.5H40.3334C40.6096 36.5 40.8334 36.7239 40.8334 37C40.8334 37.2531 40.6453 37.4623 40.4013 37.4954L40.3334 37.5H36.5001V41.3333C36.5001 41.6095 36.2762 41.8333 36.0001 41.8333C35.747 41.8333 35.5378 41.6452 35.5046 41.4012L35.5001 41.3333V37.5H31.6667C31.3906 37.5 31.1667 37.2761 31.1667 37C31.1667 36.7469 31.3549 36.5377 31.5989 36.5046L31.6667 36.5H35.5001V32.6667C35.5001 32.3905 35.7239 32.1667 36.0001 32.1667Z"/>
</mask>
<path d="M36.0001 32.1667C36.2532 32.1667 36.4624 32.3548 36.4955 32.5988L36.5001 32.6667V36.5H40.3334C40.6096 36.5 40.8334 36.7239 40.8334 37C40.8334 37.2531 40.6453 37.4623 40.4013 37.4954L40.3334 37.5H36.5001V41.3333C36.5001 41.6095 36.2762 41.8333 36.0001 41.8333C35.747 41.8333 35.5378 41.6452 35.5046 41.4012L35.5001 41.3333V37.5H31.6667C31.3906 37.5 31.1667 37.2761 31.1667 37C31.1667 36.7469 31.3549 36.5377 31.5989 36.5046L31.6667 36.5H35.5001V32.6667C35.5001 32.3905 35.7239 32.1667 36.0001 32.1667Z" fill="white"/>
<path d="M36.4955 32.5988L36.9944 32.5653L36.9933 32.5484L36.991 32.5316L36.4955 32.5988ZM36.5001 32.6667H37.0001V32.6499L36.999 32.6331L36.5001 32.6667ZM36.5001 36.5H36.0001V37H36.5001V36.5ZM40.4013 37.4954L40.4348 37.9943L40.4517 37.9932L40.4685 37.9909L40.4013 37.4954ZM40.3334 37.5V38H40.3502L40.367 37.9989L40.3334 37.5ZM36.5001 37.5V37H36.0001V37.5H36.5001ZM35.5046 41.4012L35.0058 41.4347L35.0069 41.4516L35.0092 41.4684L35.5046 41.4012ZM35.5001 41.3333H35.0001V41.3501L35.0012 41.3669L35.5001 41.3333ZM35.5001 37.5H36.0001V37H35.5001V37.5ZM31.5989 36.5046L31.5653 36.0057L31.5485 36.0068L31.5317 36.0091L31.5989 36.5046ZM31.6667 36.5V36H31.6499L31.6332 36.0011L31.6667 36.5ZM35.5001 36.5V37H36.0001V36.5H35.5001ZM36.0001 32.6667L36.0001 32.666L36.991 32.5316C36.9247 32.043 36.5068 31.6667 36.0001 31.6667V32.6667ZM35.9966 32.6324L36.0012 32.7002L36.999 32.6331L36.9944 32.5653L35.9966 32.6324ZM36.0001 32.6667V36.5H37.0001V32.6667H36.0001ZM36.5001 37H40.3334V36H36.5001V37ZM40.3334 37H41.3334C41.3334 36.4477 40.8857 36 40.3334 36V37ZM40.3334 37L40.334 37L40.4685 37.9909C40.9571 37.9246 41.3334 37.5067 41.3334 37H40.3334ZM40.3677 36.9966L40.2999 37.0011L40.367 37.9989L40.4348 37.9943L40.3677 36.9966ZM40.3334 37H36.5001V38H40.3334V37ZM36.0001 37.5V41.3333H37.0001V37.5H36.0001ZM36.0001 41.3333V42.3333C36.5524 42.3333 37.0001 41.8856 37.0001 41.3333H36.0001ZM36.0001 41.3333L36.0001 41.334L35.0092 41.4684C35.0755 41.957 35.4934 42.3333 36.0001 42.3333V41.3333ZM36.0035 41.3676L35.999 41.2998L35.0012 41.3669L35.0058 41.4347L36.0035 41.3676ZM36.0001 41.3333V37.5H35.0001V41.3333H36.0001ZM35.5001 37H31.6667V38H35.5001V37ZM31.6667 37H30.6667C30.6667 37.5523 31.1145 38 31.6667 38V37ZM31.6667 37L31.6661 37L31.5317 36.0091C31.0431 36.0754 30.6667 36.4933 30.6667 37H31.6667ZM31.6325 37.0034L31.7003 36.9989L31.6332 36.0011L31.5653 36.0057L31.6325 37.0034ZM31.6667 37H35.5001V36H31.6667V37ZM36.0001 36.5V32.6667H35.0001V36.5H36.0001ZM36.0001 32.6667V31.6667C35.4478 31.6667 35.0001 32.1144 35.0001 32.6667H36.0001Z" fill="white" mask="url(#path-5-outside-1_2490_42188)"/>
</svg>
