<svg width="189" height="183" viewBox="0 0 189 183" fill="none" xmlns="http://www.w3.org/2000/svg">
<g clip-path="url(#clip0_5091_1382)">
<ellipse cx="93.8547" cy="93.8532" rx="88.6945" ry="88.6935" fill="#F9F9F9" style="fill:#F9F9F9;fill:color(display-p3 0.9765 0.9765 0.9765);fill-opacity:1;"/>
<rect y="146.433" width="173.519" height="1.29009" rx="0.645044" fill="#EEEEEE" style="fill:#EEEEEE;fill:color(display-p3 0.9333 0.9333 0.9333);fill-opacity:1;"/>
<rect x="27.0898" y="154.819" width="142.556" height="1.29009" rx="0.645044" fill="#EEEEEE" style="fill:#EEEEEE;fill:color(display-p3 0.9333 0.9333 0.9333);fill-opacity:1;"/>
<rect x="3.86816" y="154.819" width="19.3515" height="1.29009" rx="0.645044" fill="#EEEEEE" style="fill:#EEEEEE;fill:color(display-p3 0.9333 0.9333 0.9333);fill-opacity:1;"/>
<rect x="176.742" y="146.433" width="9.67577" height="1.29009" rx="0.645044" fill="#EEEEEE" style="fill:#EEEEEE;fill:color(display-p3 0.9333 0.9333 0.9333);fill-opacity:1;"/>
<path fill-rule="evenodd" clip-rule="evenodd" d="M165.074 147.727H19.4043C20.9194 121.551 52.9489 100.644 92.239 100.644C131.529 100.644 163.559 121.551 165.074 147.727Z" fill="#EEEEEE" style="fill:#EEEEEE;fill:color(display-p3 0.9333 0.9333 0.9333);fill-opacity:1;"/>
<path d="M155.133 89.9982V64.519L130.299 38.7172C141.652 37.9432 151.155 46.1352 154.488 50.328V27.1064C164.809 34.847 163.949 48.8229 162.229 54.8433C174.356 51.7471 185.343 61.0787 189.321 66.1316C181.903 66.0241 167.131 65.8091 167.389 65.8091C177.194 69.4213 177.495 80.215 176.42 85.1604L163.196 70.3244C165.261 77.2908 158.681 86.343 155.133 89.9982Z" fill="#DCDCDC" style="fill:#DCDCDC;fill:color(display-p3 0.8627 0.8627 0.8627);fill-opacity:1;"/>
<path fill-rule="evenodd" clip-rule="evenodd" d="M36.1613 48.3766C36.3602 48.3888 36.5607 48.395 36.7626 48.395C42.1064 48.395 46.4384 44.063 46.4384 38.7193C46.4384 33.3756 42.1064 29.0437 36.7626 29.0437C36.5305 29.0437 36.3003 29.0518 36.0723 29.0679C34.5162 24.9052 30.5028 21.9414 25.7973 21.9414C19.741 21.9414 14.8314 26.8509 14.8314 32.9071V32.9073C10.5591 32.9105 7.09668 36.3749 7.09668 40.6479C7.09668 44.9228 10.5623 48.3884 14.8373 48.3884C14.9819 48.3884 15.1255 48.3844 15.2681 48.3766H36.1613Z" fill="#EEEEEE" style="fill:#EEEEEE;fill:color(display-p3 0.9333 0.9333 0.9333);fill-opacity:1;"/>
<path fill-rule="evenodd" clip-rule="evenodd" d="M107.715 55.3704C107.642 55.374 107.569 55.3759 107.496 55.3759C105.131 55.3759 103.213 53.4584 103.213 51.0932C103.213 48.7279 105.131 46.8105 107.496 46.8105C107.6 46.8105 107.702 46.8142 107.804 46.8214C108.495 44.9833 110.269 43.6753 112.349 43.6753C115.026 43.6753 117.197 45.8427 117.203 48.5184C119.094 48.52 120.626 50.0533 120.626 51.9446C120.626 53.8368 119.092 55.3707 117.2 55.3707C117.185 55.3707 117.169 55.3706 117.154 55.3704H107.715Z" fill="#EEEEEE" style="fill:#EEEEEE;fill:color(display-p3 0.9333 0.9333 0.9333);fill-opacity:1;"/>
<path d="M34.9772 90.2867C34.8957 89.9399 35.1106 89.5927 35.4574 89.5111L64.3413 82.716C64.688 82.6344 65.0353 82.8494 65.1169 83.1962L68.9576 99.5216C69.0392 99.8684 68.8242 100.216 68.4774 100.297L39.5936 107.092C39.2468 107.174 38.8996 106.959 38.818 106.612L34.9772 90.2867Z" fill="white" style="fill:white;fill-opacity:1;"/>
<path fill-rule="evenodd" clip-rule="evenodd" d="M36.3808 90.6192L39.9261 105.689L67.5541 99.1892L64.0088 84.1195L36.3808 90.6192ZM35.4574 89.5111C35.1106 89.5927 34.8957 89.9399 34.9772 90.2867L38.818 106.612C38.8996 106.959 39.2468 107.174 39.5936 107.092L68.4774 100.297C68.8242 100.216 69.0392 99.8684 68.9576 99.5216L65.1169 83.1962C65.0353 82.8494 64.688 82.6344 64.3413 82.716L35.4574 89.5111Z" fill="#CCCCCC" style="fill:#CCCCCC;fill:color(display-p3 0.8000 0.8000 0.8000);fill-opacity:1;"/>
<path d="M51.8947 96.5097C51.8278 96.5255 51.7642 96.5183 51.7042 96.4883C51.6421 96.4499 51.6022 96.393 51.5845 96.3176C51.5687 96.2507 51.553 96.1837 51.5372 96.1167C51.5215 96.0497 51.5057 95.9827 51.49 95.9158C51.4466 95.5814 51.4666 95.2719 51.5498 94.9872C51.6395 94.6922 51.7559 94.4174 51.8993 94.1628C52.049 93.8979 52.1975 93.6465 52.3447 93.4086C52.5003 93.1688 52.6235 92.941 52.7141 92.7253C52.8111 92.4993 52.8486 92.2829 52.8264 92.076C52.7944 91.8273 52.6959 91.634 52.5309 91.4961C52.3743 91.3563 52.1815 91.2691 51.9525 91.2346C51.7299 91.1898 51.5056 91.194 51.2796 91.2471C50.8861 91.3397 50.5864 91.5118 50.3805 91.7635C50.1747 92.0151 50.0759 92.3653 50.0843 92.8139C50.0828 92.9203 50.0587 93.0055 50.0119 93.0695C49.9631 93.1251 49.8885 93.1648 49.7881 93.1884L48.7206 93.4395C48.6453 93.4573 48.5724 93.4479 48.502 93.4115C48.4379 93.3647 48.3951 93.2952 48.3734 93.2031C48.303 92.8663 48.3025 92.5262 48.372 92.183C48.4478 91.8294 48.5944 91.4945 48.8116 91.1784C49.0371 90.8602 49.3341 90.5827 49.7025 90.3459C50.0689 90.1006 50.5116 89.917 51.0307 89.7948C51.6 89.6609 52.0949 89.624 52.5155 89.6841C52.9424 89.7338 53.2965 89.8493 53.5777 90.0306C53.8673 90.2099 54.0948 90.4258 54.2603 90.6785C54.4238 90.9227 54.5319 91.1756 54.5845 91.4371C54.6426 91.7592 54.6384 92.0606 54.572 92.3413C54.5055 92.622 54.4057 92.8928 54.2728 93.1539C54.1378 93.4065 53.9987 93.6601 53.8554 93.9147C53.7101 94.1609 53.5867 94.4064 53.4852 94.6512C53.3922 94.894 53.3481 95.1385 53.353 95.3847C53.354 95.464 53.3591 95.5423 53.3685 95.6196C53.3759 95.6886 53.3833 95.7575 53.3906 95.8265C53.3808 95.9348 53.3576 96.0242 53.3212 96.0946C53.2828 96.1567 53.2175 96.1985 53.1254 96.2202L51.8947 96.5097ZM52.4125 98.8795C52.3288 98.8992 52.2507 98.8866 52.1783 98.8418C52.1059 98.797 52.0599 98.7327 52.0402 98.649L51.7832 97.5564C51.7615 97.4644 51.7731 97.3821 51.8179 97.3097C51.8627 97.2373 51.927 97.1913 52.0107 97.1716L53.2288 96.885C53.3209 96.8634 53.4032 96.8749 53.4756 96.9197C53.548 96.9646 53.595 97.033 53.6167 97.1251L53.8737 98.2177C53.8934 98.3014 53.8808 98.3794 53.836 98.4518C53.7912 98.5242 53.7227 98.5713 53.6306 98.5929L52.4125 98.8795Z" fill="#828282" style="fill:#828282;fill:color(display-p3 0.5083 0.5083 0.5083);fill-opacity:1;"/>
<path fill-rule="evenodd" clip-rule="evenodd" d="M54.3681 102.301L53.1123 102.596L56.5019 117.004C56.8759 116.778 57.276 116.591 57.6966 116.449L54.3681 102.301Z" fill="#CCCCCC" style="fill:#CCCCCC;fill:color(display-p3 0.8000 0.8000 0.8000);fill-opacity:1;"/>
<path fill-rule="evenodd" clip-rule="evenodd" d="M117.044 123.253C120.55 110.433 133.682 72.0346 153.195 59.3187C156.807 56.9965 160.936 62.1928 156.42 64.479C151.994 66.7202 126.614 93.7648 122.457 125.457C121.333 124.089 119.628 123.216 117.719 123.216C117.491 123.216 117.266 123.228 117.044 123.253Z" fill="#E2E2E2" style="fill:#E2E2E2;fill:color(display-p3 0.8875 0.8875 0.8875);fill-opacity:1;"/>
</g>
<defs>
<clipPath id="clip0_5091_1382">
<rect width="189" height="182.547" fill="white" style="fill:white;fill-opacity:1;"/>
</clipPath>
</defs>
</svg>
