<svg width="120" height="120" viewBox="0 0 120 120" fill="none" xmlns="http://www.w3.org/2000/svg">
<path opacity="0.03" d="M60 108C87.6142 108 110 105.314 110 102C110 98.6863 87.6142 96 60 96C32.3858 96 10 98.6863 10 102C10 105.314 32.3858 108 60 108Z" fill="black"/>
<path d="M90.52 26.5955C89.5787 25.8339 88.3433 25.5396 87.16 25.7952C78.521 27.6063 69.5178 25.7675 62.28 20.7136C60.9088 19.7621 59.0912 19.7621 57.72 20.7136C50.4822 25.7675 41.479 27.6063 32.84 25.7952C31.6567 25.5396 30.4213 25.8339 29.48 26.5955C28.5401 27.3582 27.9959 28.5057 28 29.7165V59.5258C27.9928 71.1655 33.6103 82.091 43.08 88.855L57.68 99.2582C59.0687 100.247 60.9313 100.247 62.32 99.2582L76.92 88.855C86.3897 82.091 92.0072 71.1655 92 59.5258V29.7165C92.0041 28.5057 91.4599 27.3582 90.52 26.5955Z" fill="#EEEEEE" stroke="#363636"/>
<path d="M29.48 26.5955C30.4213 25.8339 31.6567 25.5396 32.84 25.7953C36.5489 26.5728 40.3249 26.6776 43.9995 26.1441L43.9996 51.5258C43.9937 63.1656 48.909 74.091 57.195 80.855L73.754 91.1091L62.32 99.2583C61.0239 100.181 59.3149 100.243 57.9638 99.4429L57.68 99.2583L43.08 88.855C33.6103 82.091 27.9928 71.1656 28 59.5258V29.7165C27.9959 28.5058 28.5401 27.3583 29.48 26.5955Z" fill="#363636" fill-opacity="0.1"/>
<path d="M82.89 34.7817C82.184 34.2295 81.2575 34.0162 80.37 34.2015C73.8907 35.5146 67.1383 34.1814 61.71 30.5174C60.6816 29.8275 59.3184 29.8275 58.29 30.5174C52.8617 34.1814 46.1093 35.5146 39.63 34.2015C38.7425 34.0162 37.816 34.2295 37.11 34.7817C36.4051 35.3347 35.9969 36.1667 36 37.0444V58.6562C35.9946 67.095 40.2077 75.016 47.31 79.9199L58.26 87.4622C59.3015 88.1793 60.6985 88.1793 61.74 87.4622L72.69 79.9199C79.7923 75.016 84.0054 67.095 84 58.6562V37.0444C84.0031 36.1667 83.5949 35.3347 82.89 34.7817Z" fill="white" stroke="#363636"/>
<path d="M37.11 34.7818C37.816 34.2296 38.7425 34.0163 39.63 34.2016C40.4174 34.3612 41.2088 34.4817 42.0013 34.5636L42 55.6207C41.9946 64.9325 46.2077 73.6729 53.31 79.0841L63.1 86.5242L61.74 87.4623C60.7853 88.1196 59.5319 88.1744 58.5274 87.6266L58.26 87.4623L47.31 79.9199C40.2077 75.016 35.9946 67.0951 36 58.6563V37.0445C35.9969 36.1667 36.4051 35.3348 37.11 34.7818Z" fill="#363636" fill-opacity="0.1"/>
<path d="M71.0958 48.6884C72.201 49.6954 72.3079 51.4385 71.3345 52.5819L63.0626 62.246L61.2454 64.3065L60.2814 65.3629L59.4855 66.1963L58.9834 66.6909L58.4201 67.1974L58.0631 67.4771L57.7503 67.6832L57.5609 67.7853L57.3831 67.8629L57.1313 67.9407L56.8062 67.9896L56.4701 68L56.1701 67.9927L55.8889 67.9661C55.7517 67.9467 55.6189 67.9174 55.4863 67.8739L55.2202 67.7671C55.1755 67.7457 55.1305 67.7225 55.0851 67.6973L54.8065 67.5206C54.7588 67.4867 54.7104 67.4505 54.6611 67.4118L54.3537 67.1488L54.018 66.8192C53.9593 66.7583 53.8992 66.6944 53.8374 66.6272L53.2332 65.9313L52.7696 65.3585L51.9649 64.3176L50.2721 62.0382L48.5364 59.6592C47.6506 58.442 47.8864 56.7124 49.063 55.7961C50.2396 54.8798 51.9114 55.1237 52.7972 56.3409L54.2507 58.322L55.4897 59.9763L56.1958 60.8966L56.5521 61.349L58.4527 59.2308L61.849 55.3358L67.3321 48.9354C68.3055 47.7921 69.9905 47.6815 71.0958 48.6884Z" fill="url(#paint0_linear_2935_1025)"/>
<defs>
<linearGradient id="paint0_linear_2935_1025" x1="34.5594" y1="73.7102" x2="81.824" y2="37.5877" gradientUnits="userSpaceOnUse">
<stop stop-color="#FF7100"/>
<stop offset="1" stop-color="#F6DA35"/>
</linearGradient>
</defs>
</svg>
