<svg width="136" height="136" viewBox="0 0 136 136" fill="none" xmlns="http://www.w3.org/2000/svg">
<path fill-rule="evenodd" clip-rule="evenodd" d="M35.9436 57.3148L64.8776 31.0014C67.1126 28.9688 70.5121 28.9529 72.7658 30.9646L102.282 57.311C103.544 58.4376 104.267 60.053 104.267 61.7494V109.933H34V61.7164C34 60.0392 34.706 58.4402 35.9436 57.3148Z" fill="#F8F8F8" stroke="#CCCCCC"/>
<path fill-rule="evenodd" clip-rule="evenodd" d="M80.0541 74.7998H88.8121C90.4621 74.7998 91.7997 76.1554 91.7997 77.8277V109.933H77.0664V77.8277C77.0664 76.1554 78.404 74.7998 80.0541 74.7998Z" stroke="#CCCCCC"/>
<path d="M87.1636 93.3228V96.7598" stroke="#999999" stroke-linecap="round"/>
<path d="M60.5364 90.666H56.1968C54.5785 90.666 53.2666 89.4027 53.2666 87.8443V78.7544C53.2666 77.196 54.5785 75.9327 56.1968 75.9327H60.5364C62.1547 75.9327 63.4666 77.196 63.4666 78.7544V87.8443C63.4666 89.4027 62.1547 90.666 60.5364 90.666Z" stroke="#CCCCCC"/>
<path fill-rule="evenodd" clip-rule="evenodd" d="M36.2666 51L43.0666 45.0575V39.2042C43.0666 37.5819 41.7547 36.2667 40.1364 36.2667H39.1968C37.5785 36.2667 36.2666 37.5819 36.2666 39.2042V51Z" fill="#F8F8F8" stroke="#CCCCCC" stroke-width="1.089"/>
<path d="M62.8791 26.9549C65.7543 24.3793 70.0548 24.2586 73.0656 26.6267L73.3068 26.8242L113.274 60.8565C114.701 62.0716 114.871 64.2121 113.655 65.6375C112.485 67.0081 110.459 67.2184 109.037 66.1524L108.869 66.0183L68.902 31.986C68.5067 31.6494 67.9388 31.6281 67.522 31.9179L67.4123 32.0047L29.4615 65.9999C28.0655 67.2504 25.9191 67.1336 24.6673 65.7392C23.4636 64.3984 23.5253 62.3644 24.7729 61.0983L24.9283 60.9502L62.8791 26.9549Z" fill="#F8F8F8" stroke="#CCCCCC"/>
<path d="M43.4894 35.1333H35.8439C34.8256 35.1333 34 35.8944 34 36.8333C34 37.7722 34.8256 38.5333 35.8439 38.5333H43.4894C44.5078 38.5333 45.3333 37.7722 45.3333 36.8333C45.3333 35.8944 44.5078 35.1333 43.4894 35.1333Z" fill="#CCCCCC"/>
</svg>
