<svg width="360" height="240" viewBox="0 0 360 240" fill="none" xmlns="http://www.w3.org/2000/svg">
<path opacity="0.12" fill-rule="evenodd" clip-rule="evenodd" d="M284.516 93.854C280.544 93.854 276.942 95.4408 274.31 98.0152C271.672 100.595 270.009 104.168 269.923 108.128C269.911 108.661 269.929 109.188 269.973 109.707C269.702 109.261 269.393 108.839 269.048 108.448C267.437 106.62 265.079 105.467 262.452 105.467C260.024 105.467 257.827 106.451 256.236 108.042C254.645 109.633 253.661 111.831 253.661 114.258C253.661 115.369 253.867 116.431 254.243 117.409C252.618 118.672 251.409 119.586 250.434 120.708C248.416 119.916 246.784 119.404 245.032 119.404C242.605 119.404 240.407 120.388 238.817 121.978C237.226 123.569 236.242 125.767 236.242 128.194C236.242 130.622 237.226 132.82 238.817 134.411C240.407 136.001 242.605 136.985 245.032 136.985C247.058 136.985 248.924 136.3 250.411 135.148C252.959 137.018 255.541 138.147 258.387 138.147C259.611 138.147 260.786 137.938 261.879 137.554C263.955 140.706 266.205 143.148 268.962 144.847C271.628 146.49 274.768 147.437 278.129 147.437C281.865 147.437 285.327 146.267 288.169 144.273C290.884 145.538 293.42 146.276 296.129 146.276C299.131 146.276 301.921 145.37 304.242 143.816C306.633 142.214 308.524 139.925 309.633 137.231C309.708 137.048 309.78 136.864 309.847 136.679C310.01 136.788 310.176 136.89 310.344 136.987C311.63 137.725 313.12 138.147 314.71 138.147C317.137 138.147 319.335 137.163 320.925 135.572C322.516 133.981 323.5 131.783 323.5 129.356C323.5 126.928 322.516 124.731 320.925 123.14C319.335 121.549 317.137 120.565 314.71 120.565C312.335 120.565 310.181 121.507 308.599 123.037C308.459 123.172 308.323 123.312 308.192 123.456C308.081 123.294 307.967 123.133 307.85 122.976C305.385 119.662 301.547 117.428 297.177 117.118C296.879 117.097 296.581 117.085 296.286 117.082C296.463 116.842 296.632 116.597 296.793 116.348C298.261 114.073 299.113 111.362 299.113 108.452C299.113 104.421 297.479 100.771 294.838 98.1295C292.196 95.4879 288.547 93.854 284.516 93.854Z" stroke="#363636"/>
<path fill-rule="evenodd" clip-rule="evenodd" d="M199.127 128.667C209.224 134.741 215.549 161.139 202.302 173.205C200.544 172.661 199.363 172.838 197.657 172.044C195.493 160.269 190.185 152.966 181.732 150.134C189.01 141.102 194.808 133.946 199.127 128.667Z" fill="#FFAB00" stroke="#363636" stroke-linejoin="round"/>
<path fill-rule="evenodd" clip-rule="evenodd" d="M203.773 129.829C214.433 136.242 218.366 161.887 202.303 173.206C200.139 161.431 195.467 153.451 188.288 149.267C194.292 141.587 199.454 135.108 203.773 129.829Z" fill="#E99341" stroke="#363636" stroke-linejoin="round"/>
<path fill-rule="evenodd" clip-rule="evenodd" d="M225.762 54.7989C228.5 56.0003 230.838 58.1124 232.294 60.9234L234.846 65.8523L230.632 77.1981C226.146 89.2767 219.672 100.521 211.479 110.465L181.905 146.358C179.342 149.469 175.761 151.247 172.043 151.606C168.324 151.965 164.469 150.905 161.364 148.347L148.528 137.446C145.746 135.083 144.051 131.874 143.543 128.487C143.034 125.1 143.713 121.535 145.678 118.46L167.325 84.5915C175.775 71.3695 188.841 61.7626 203.981 57.6389L216.832 54.1386C219.887 53.3067 223.024 53.5974 225.762 54.7989Z" fill="#EEEEEE" stroke="#363636"/>
<path fill-rule="evenodd" clip-rule="evenodd" d="M230.07 57.0004C232.43 57.9574 234.425 59.8147 235.496 62.3456C236.127 63.8385 236.385 65.463 236.245 67.078L235.464 76.1377C233.992 93.197 227.4 109.413 216.551 122.66L191.471 153.282C189.021 156.274 185.617 158.05 182.044 158.51C178.47 158.971 174.727 158.115 171.599 155.842L158.01 145.97C154.882 143.697 152.912 140.401 152.245 136.86C151.579 133.32 152.216 129.533 154.304 126.279L175.677 92.9641C184.923 78.5524 198.309 67.2713 214.078 60.6003L222.453 57.0575C224.984 55.9869 227.71 56.0434 230.07 57.0004Z" fill="white" stroke="#363636"/>
<path d="M206.581 98.6174C212.584 102.979 220.987 101.648 225.348 95.6444C229.71 89.641 228.379 81.2386 222.376 76.8772C216.373 72.5157 207.971 73.8467 203.609 79.8501C199.248 85.8535 200.578 94.2559 206.581 98.6174Z" fill="#CCCCCC" stroke="#363636"/>
<path fill-rule="evenodd" clip-rule="evenodd" d="M160.863 102.646C151.47 94.4888 123.162 98.6231 117.361 117.398C119.605 118.006 121.496 118.096 123.167 118.559C127.221 118.274 131.408 116.292 136.866 117.397C139.167 117.863 142.349 119.452 146.414 122.166C152.361 114.892 157.178 108.385 160.863 102.646Z" fill="#E99341" stroke="#363636" stroke-linejoin="round"/>
<path fill-rule="evenodd" clip-rule="evenodd" d="M163.966 103.756C154.573 95.5996 128.968 99.7843 123.167 118.559C135.034 116.978 144.067 118.955 150.264 124.49C155.713 116.407 160.28 109.496 163.966 103.756Z" fill="#FFAB00" stroke="#363636" stroke-linejoin="round"/>
<path fill-rule="evenodd" clip-rule="evenodd" d="M190.161 122.418L187.105 123.127C183.864 123.877 181.04 125.853 179.224 128.639L171.706 140.173L166.683 158.614C166.614 158.867 166.763 159.128 167.016 159.196C167.186 159.243 167.368 159.191 167.488 159.062L181.143 144.399C184.965 140.296 187.835 135.401 189.55 130.063L191.529 123.905C191.725 123.294 191.389 122.64 190.778 122.444C190.579 122.38 190.365 122.371 190.161 122.418Z" fill="#FFAB00" stroke="#363636"/>
<path fill-rule="evenodd" clip-rule="evenodd" d="M222.376 76.8773C225.377 79.058 227.211 82.249 227.748 85.6452C228.286 89.0414 227.528 92.6429 225.348 95.6446C223.763 97.8259 221.644 99.3906 219.302 100.289C217.605 100.94 215.791 101.241 213.977 101.175C216.445 100.202 218.675 98.5382 220.35 96.2325C222.693 93.0074 223.507 89.1379 222.93 85.4889C222.352 81.8399 220.382 78.4115 217.157 76.0684C216.152 75.3386 215.085 74.7572 213.982 74.3198C216.885 74.2108 219.844 75.0376 222.376 76.8773Z" fill="#EEEEEE" stroke="#363636"/>
<path d="M140.253 162.666C124.859 190.602 114.4 206.221 108.878 209.521C100.594 214.47 85.9355 212.516 85.9355 195.12C85.9355 177.724 116.595 183.331 105.097 198.7" stroke="#363636" stroke-opacity="0.12"/>
<path d="M156.824 170.029C142.651 189.588 135.517 202.584 135.421 209.017C135.276 218.666 144 224.521 151.032 219.94C158.065 215.359 154.102 202.484 146.682 206.881" stroke="#363636" stroke-opacity="0.12"/>
<path opacity="0.12" fill-rule="evenodd" clip-rule="evenodd" d="M75.4839 48.5615C79.4562 48.5615 83.0579 50.1484 85.6898 52.7227C88.3276 55.3029 89.9912 58.8751 90.0771 62.836C90.0887 63.3686 90.0715 63.8954 90.027 64.4144C90.2977 63.9682 90.6075 63.5469 90.9522 63.1557C92.5626 61.3279 94.9209 60.175 97.5484 60.175C99.9758 60.175 102.173 61.159 103.764 62.7498C105.355 64.3406 106.339 66.5383 106.339 68.9658C106.339 70.0763 106.133 71.1387 105.757 72.1169C107.382 73.3798 108.591 74.2937 109.566 75.4157C111.584 74.6235 113.216 74.1112 114.968 74.1112C117.395 74.1112 119.593 75.0951 121.183 76.686C122.774 78.2768 123.758 80.4745 123.758 82.902C123.758 85.3295 122.774 87.5272 121.183 89.118C119.593 90.7088 117.395 91.6928 114.968 91.6928C112.942 91.6928 111.076 91.0074 109.589 89.8557C107.041 91.7256 104.459 92.8541 101.613 92.8541C100.389 92.8541 99.2138 92.6455 98.1211 92.2616C96.0451 95.4139 93.7951 97.8557 91.0384 99.5545C88.3724 101.197 85.2323 102.145 81.871 102.145C78.6014 102.145 75.5412 101.248 72.923 99.6875C70.2129 98.0717 67.9762 95.7444 66.4707 92.9633C65.2784 92.8035 64.5806 92.8541 63.871 92.8541C59.8426 92.8541 56.1954 91.2222 53.5543 88.5835C53.3986 88.4279 53.2464 88.2688 53.0975 88.1066C52.9974 88.2995 52.89 88.489 52.7754 88.6745C51.2274 91.1826 48.4541 92.8541 45.2903 92.8541C42.8629 92.8541 40.6654 91.8702 39.0746 90.2794C37.4839 88.6886 36.5 86.4909 36.5 84.0633C36.5 81.6358 37.4839 79.4381 39.0746 77.8473C40.6654 76.2565 42.8629 75.2726 45.2903 75.2726C46.5441 75.2726 47.7367 75.5349 48.8159 76.008C49.0154 76.0955 49.2122 76.1906 49.4057 76.2933C49.435 76.0752 49.4693 75.8571 49.5087 75.6391C50.0242 72.7887 51.3678 70.2264 53.2812 68.21C55.2024 66.1853 57.6981 64.7109 60.5073 64.0484C60.8899 59.353 62.5047 55.6177 65.1246 52.9268C67.7678 50.2119 71.4332 48.5615 75.4839 48.5615Z" stroke="#363636"/>
</svg>
