<svg width="320" height="86" viewBox="0 0 320 86" fill="none" xmlns="http://www.w3.org/2000/svg">
<g opacity="0.3">
<path fill-rule="evenodd" clip-rule="evenodd" d="M12.221 53.6968C12.0577 53.6968 11.8944 53.6353 11.7698 53.513C11.5207 53.268 11.5207 52.8708 11.7698 52.6258L15.6414 48.8206C15.8907 48.5756 16.2946 48.5759 16.5438 48.8206C16.7931 49.0654 16.7931 49.4626 16.5438 49.7076L12.6724 53.513C12.5478 53.6353 12.3843 53.6968 12.221 53.6968Z" fill="#FFA900"/>
<path fill-rule="evenodd" clip-rule="evenodd" d="M3.21521 62.5514C3.05096 62.5514 2.8867 62.4897 2.76132 62.3665C2.51055 62.12 2.51055 61.7205 2.76132 61.4742L5.98171 58.3087C6.23248 58.0625 6.63898 58.0625 6.88949 58.3087C7.14026 58.5552 7.14026 58.9547 6.88949 59.2012L3.66911 62.3665C3.54372 62.4897 3.37947 62.5514 3.21521 62.5514Z" fill="#FFA900"/>
<path fill-rule="evenodd" clip-rule="evenodd" d="M7.07343 53.6969C6.90773 53.6969 6.74203 53.6425 6.61554 53.5339L2.76297 50.2204C2.51 50.0028 2.51 49.6501 2.76297 49.4326C3.0157 49.2152 3.42577 49.2152 3.67875 49.4326L7.53132 52.746C7.78429 52.9636 7.78429 53.3163 7.53132 53.5339C7.40483 53.6427 7.23913 53.6969 7.07343 53.6969Z" fill="#FFA900"/>
<path fill-rule="evenodd" clip-rule="evenodd" d="M16.0926 61.9189C15.9294 61.9189 15.7661 61.8577 15.6414 61.7352L11.7698 57.9298C11.5207 57.6848 11.5207 57.2877 11.7698 57.0429C12.0191 56.7979 12.4232 56.7979 12.6724 57.0429L16.5438 60.848C16.7931 61.093 16.7931 61.4902 16.5438 61.7352C16.4192 61.8577 16.2559 61.9189 16.0926 61.9189Z" fill="#FFA900"/>
<path fill-rule="evenodd" clip-rule="evenodd" d="M9.65226 51.7993C9.29684 51.7993 9.00879 51.5404 9.00879 51.2214V48.5822C9.00879 48.2631 9.29684 48.0044 9.65226 48.0044C10.0077 48.0044 10.2957 48.2631 10.2957 48.5822V51.2214C10.2957 51.5406 10.0077 51.7993 9.65226 51.7993Z" fill="#FFA900"/>
<path fill-rule="evenodd" clip-rule="evenodd" d="M18.711 56.2264H14.1076C13.7795 56.2264 13.5137 55.943 13.5137 55.5939C13.5137 55.2446 13.7795 54.9614 14.1076 54.9614H18.711C19.0391 54.9614 19.305 55.2446 19.305 55.5939C19.305 55.943 19.0391 56.2264 18.711 56.2264Z" fill="#FFA900"/>
<path fill-rule="evenodd" clip-rule="evenodd" d="M9.65226 64.4488C9.29684 64.4488 9.00879 64.1823 9.00879 63.8536V58.7193C9.00879 58.3905 9.29684 58.124 9.65226 58.124C10.0077 58.124 10.2957 58.3905 10.2957 58.7193V63.8536C10.2957 64.1823 10.0077 64.4488 9.65226 64.4488Z" fill="#FFA900"/>
<path fill-rule="evenodd" clip-rule="evenodd" d="M5.20142 56.2267H0.589866C0.264057 56.2267 0 55.9433 0 55.5942C0 55.2449 0.264057 54.9617 0.589866 54.9617H5.20142C5.52722 54.9617 5.79128 55.2449 5.79128 55.5942C5.79128 55.9433 5.52722 56.2267 5.20142 56.2267Z" fill="#FFA900"/>
</g>
<g opacity="0.2">
<path fill-rule="evenodd" clip-rule="evenodd" d="M276.179 49.1537C275.968 49.2064 275.737 49.1787 275.536 49.059C275.134 48.8189 275.004 48.2994 275.246 47.8987L279.014 41.6735C279.257 41.2726 279.78 41.1427 280.182 41.3824C280.584 41.6221 280.714 42.1415 280.471 42.5424L276.703 48.7678C276.582 48.9679 276.391 49.1011 276.179 49.1537Z" fill="#FF7100"/>
<path fill-rule="evenodd" clip-rule="evenodd" d="M267.417 63.6388C267.204 63.6918 266.972 63.6642 266.769 63.5434C266.364 63.302 266.234 62.7795 266.478 62.3766L269.612 57.1979C269.857 56.795 270.382 56.6639 270.787 56.9051C271.192 57.1466 271.322 57.6691 271.078 58.0723L267.944 63.2506C267.822 63.4522 267.629 63.5858 267.417 63.6388Z" fill="#FF7100"/>
<path fill-rule="evenodd" clip-rule="evenodd" d="M269.521 50.8138C269.306 50.8673 269.074 50.8496 268.875 50.7484L262.81 47.6577C262.412 47.4548 262.297 46.9935 262.554 46.6274C262.81 46.2616 263.34 46.1293 263.738 46.332L269.803 49.4227C270.201 49.6256 270.316 50.0869 270.06 50.453C269.932 50.6361 269.735 50.7604 269.521 50.8138Z" fill="#FF7100"/>
<path fill-rule="evenodd" clip-rule="evenodd" d="M283.87 58.6583C283.659 58.711 283.427 58.6835 283.226 58.5635L276.977 54.8358C276.574 54.5957 276.445 54.0763 276.687 53.6759C276.93 53.275 277.453 53.1447 277.855 53.3847L284.104 57.1122C284.507 57.3522 284.636 57.8716 284.394 58.2725C284.272 58.4729 284.081 58.6056 283.87 58.6583Z" fill="#FF7100"/>
<path fill-rule="evenodd" clip-rule="evenodd" d="M272.237 47.5009C271.777 47.6155 271.32 47.3698 271.216 46.9528L270.355 43.5012C270.251 43.0838 270.54 42.6526 270.999 42.538C271.459 42.4233 271.916 42.6687 272.02 43.0861L272.881 46.5376C272.985 46.955 272.697 47.3862 272.237 47.5009Z" fill="#FF7100"/>
<path fill-rule="evenodd" clip-rule="evenodd" d="M285.4 50.3691L279.445 51.854C279.02 51.9598 278.584 51.675 278.47 51.2184C278.356 50.7616 278.608 50.3055 279.032 50.1997L284.988 48.7148C285.412 48.609 285.848 48.8935 285.962 49.3504C286.076 49.8069 285.825 50.2633 285.4 50.3691Z" fill="#FF7100"/>
<path fill-rule="evenodd" clip-rule="evenodd" d="M276.362 64.0437C275.902 64.1583 275.442 63.9028 275.335 63.4728L273.661 56.7582C273.554 56.3283 273.839 55.8869 274.299 55.7722C274.759 55.6576 275.219 55.9131 275.326 56.3431L277 63.0577C277.107 63.4877 276.821 63.929 276.362 64.0437Z" fill="#FF7100"/>
<path fill-rule="evenodd" clip-rule="evenodd" d="M267.923 54.7264L261.957 56.214C261.535 56.3191 261.101 56.0336 260.987 55.5771C260.874 55.1202 261.123 54.6648 261.544 54.5597L267.51 53.0722C267.932 52.9671 268.366 53.2522 268.48 53.709C268.594 54.1656 268.344 54.6214 267.923 54.7264Z" fill="#FF7100"/>
</g>
<path opacity="0.4" fill-rule="evenodd" clip-rule="evenodd" d="M239.208 49.5775H240.987V51.5794C240.987 52.369 241.278 53.0094 242.068 53.0094C242.858 53.0094 242.97 52.369 242.97 51.5794V49.5775H244.928C245.718 49.5775 246.358 49.5091 246.358 48.7195C246.358 47.9299 245.718 47.5511 244.928 47.5511H242.97V45.8596C242.97 45.07 242.858 44.4297 242.068 44.4297C241.278 44.4297 240.987 45.07 240.987 45.8596V47.5511H239.208C238.419 47.5511 237.778 47.9299 237.778 48.7195C237.778 49.5093 238.419 49.5775 239.208 49.5775Z" fill="#FF7100"/>
<path opacity="0.15" fill-rule="evenodd" clip-rule="evenodd" d="M224.193 67.3093C224.193 65.3378 225.797 63.734 227.768 63.734C229.739 63.734 231.343 65.3379 231.343 67.3093C231.343 69.2803 229.739 70.8837 227.768 70.8837C225.797 70.8837 224.193 69.2803 224.193 67.3093ZM225.853 67.3092C225.853 68.3651 226.712 69.2242 227.768 69.2242C228.824 69.2242 229.683 68.3653 229.683 67.3092C229.683 66.2529 228.824 65.3934 227.768 65.3934C226.712 65.3934 225.852 66.2529 225.853 67.3092Z" fill="#FF7100"/>
<path opacity="0.3" fill-rule="evenodd" clip-rule="evenodd" d="M77.3174 63.7343C77.3174 61.7629 75.7139 60.1591 73.7429 60.1591C71.7715 60.1591 70.1677 61.7629 70.1677 63.7343C70.1677 65.7053 71.7715 67.3088 73.7429 67.3088C75.714 67.3088 77.3175 65.7053 77.3174 63.7343ZM75.6582 63.7347C75.6582 64.7905 74.7992 65.6496 73.7432 65.6496C72.6868 65.6496 71.8274 64.7907 71.8274 63.7347C71.8274 62.6783 72.6869 61.8188 73.7432 61.8188C74.7992 61.8188 75.6583 62.6783 75.6582 63.7347Z" fill="#FF7100"/>
<path opacity="0.3" d="M51.9707 56.157C52.003 56.1617 52.0342 56.1662 52.0643 56.1704V56.3775C52.0344 56.382 52.0033 56.3869 51.9712 56.392C51.6167 56.4489 51.1251 56.5455 50.573 56.7049C49.4818 57.0199 48.0942 57.5971 47.086 58.6533C46.0811 59.706 45.5203 61.1654 45.2087 62.3129C45.0509 62.8943 44.9526 63.4128 44.8936 63.7865C44.8867 63.8306 44.8803 63.8727 44.8743 63.9127H44.7691C44.764 63.8748 44.7584 63.835 44.7524 63.7935C44.6981 63.4192 44.6055 62.9 44.4519 62.3176C44.1485 61.1679 43.59 59.705 42.559 58.649C41.5268 57.5917 40.0934 57.016 38.9657 56.7024C38.3948 56.5437 37.8857 56.4476 37.5185 56.3911C37.4799 56.3852 37.4428 56.3797 37.4073 56.3745V56.1782C37.4395 56.1742 37.4731 56.17 37.5078 56.1654C37.876 56.1167 38.3866 56.0309 38.959 55.8816C40.0895 55.5868 41.5279 55.0278 42.5612 53.9571C43.5909 52.8901 44.1482 51.3862 44.4512 50.2028C44.6048 49.6027 44.6976 49.0663 44.7521 48.6794C44.7589 48.6308 44.7652 48.5846 44.7709 48.5407H44.8767C44.884 48.5898 44.8921 48.642 44.901 48.6972C44.9638 49.0868 45.0666 49.6262 45.2271 50.2275C45.5432 51.4115 46.1027 52.9129 47.0838 53.9528C48.0708 54.9988 49.4647 55.559 50.5606 55.8604C51.116 56.0131 51.6124 56.1041 51.9707 56.157Z" stroke="#FFA700" stroke-width="1.07246"/>
<path opacity="0.3" d="M91.5493 44.3825C91.5674 44.3852 91.5849 44.3878 91.6018 44.3902V44.5268C91.585 44.5294 91.5675 44.5322 91.5494 44.5352C91.3395 44.5699 91.0485 44.6288 90.7217 44.726C90.0754 44.9182 89.2543 45.2702 88.6582 45.9135C88.065 46.5537 87.7341 47.4406 87.5504 48.1379C87.4573 48.4913 87.3993 48.8064 87.3645 49.0335C87.3602 49.0613 87.3563 49.0877 87.3527 49.1128H87.3013C87.2982 49.0889 87.2948 49.0639 87.2911 49.0376C87.259 48.8102 87.2044 48.4946 87.1138 48.1407C86.9348 47.4421 86.6054 46.5531 85.9967 45.9109C85.3864 45.2669 84.5381 44.9158 83.8703 44.7245C83.5324 44.6277 83.231 44.5691 83.0137 44.5346C82.9918 44.5312 82.9708 44.528 82.9506 44.525V44.395C82.9688 44.3927 82.9876 44.3903 83.007 44.3876C83.2251 44.3579 83.5273 44.3056 83.8662 44.2146C84.5358 44.0347 85.3871 43.6937 85.998 43.0416C86.6059 42.3927 86.9346 41.4788 87.1133 40.7596C87.204 40.3949 87.2587 40.0689 87.2909 39.8338C87.295 39.8032 87.2989 39.7741 87.3023 39.7467H87.3541C87.3585 39.7772 87.3634 39.8099 87.3688 39.8444C87.4059 40.0811 87.4665 40.4091 87.5613 40.7746C87.7477 41.4942 88.0778 42.4067 88.6569 43.0389C89.2405 43.676 90.0654 44.0177 90.7145 44.2016C91.0433 44.2947 91.3372 44.3502 91.5493 44.3825Z" stroke="#FFA700" stroke-width="0.643476"/>
<path opacity="0.6" d="M319.603 60.8349C319.626 60.8383 319.649 60.8413 319.67 60.8442V60.9614C319.649 60.9645 319.627 60.9678 319.603 60.9713C319.379 61.0059 319.067 61.0645 318.717 61.1612C318.025 61.3522 317.144 61.7023 316.504 62.3438C315.865 62.9846 315.507 63.8741 315.308 64.5743C315.208 64.9288 315.145 65.245 315.107 65.473C315.103 65.4997 315.099 65.5252 315.095 65.5494H315.004C315.001 65.5265 314.997 65.5025 314.994 65.4774C314.959 65.2491 314.9 64.9324 314.802 64.5773C314.608 63.8756 314.252 62.984 313.596 62.3412C312.941 61.6992 312.032 61.35 311.316 61.1597C310.954 61.0634 310.631 61.0051 310.398 60.9708C310.371 60.9668 310.345 60.963 310.32 60.9596V60.8488C310.343 60.8461 310.367 60.8432 310.392 60.84C310.626 60.8105 310.949 60.7584 311.313 60.6679C312.029 60.4891 312.942 60.15 313.598 59.4999C314.253 58.8504 314.608 57.9337 314.802 57.2116C314.9 56.8456 314.959 56.5185 314.993 56.2825C314.998 56.2532 315.002 56.2252 315.005 56.1987H315.097C315.101 56.2285 315.107 56.2602 315.112 56.2937C315.152 56.5312 315.218 56.8601 315.32 57.2268C315.522 57.949 315.878 58.8642 316.503 59.4973C317.129 60.1325 318.014 60.4722 318.708 60.655C319.061 60.7477 319.376 60.8029 319.603 60.8349Z" stroke="#FFA500" stroke-width="0.658919"/>
<path fill-rule="evenodd" clip-rule="evenodd" d="M151.698 32.0692C152.08 31.8931 152.529 31.8628 152.955 32.02C153.238 32.1244 153.481 32.302 153.664 32.528C153.847 32.754 153.97 33.0285 154.013 33.3269C155.081 40.6904 157.232 46.0331 160.434 49.3731C163.565 52.6387 167.876 54.8172 173.376 55.8951C173.821 55.9825 174.189 56.2423 174.424 56.5916C174.658 56.941 174.76 57.3799 174.672 57.8254C174.57 58.3473 174.221 58.7874 173.736 59.0059L138.319 75.0216C137.905 75.2087 137.454 75.2104 137.061 75.0619C136.667 74.9134 136.33 74.6146 136.143 74.2008C135.965 73.8072 135.949 73.3593 136.098 72.954L150.844 32.9933C151.001 32.5673 151.316 32.2454 151.698 32.0692Z" fill="white" stroke="#363636" stroke-width="0.714973"/>
<path fill-rule="evenodd" clip-rule="evenodd" d="M152.132 32.0734C152.276 31.9607 152.501 31.9525 152.772 31.9855C153.148 32.0313 153.608 32.1772 154.136 32.4078C155.25 32.8939 156.645 33.7524 158.173 34.9048C160.885 36.9489 164.009 39.9147 166.726 43.3914C169.737 47.2463 172.155 50.8896 173.512 53.6893C174.14 54.9837 174.54 56.0916 174.654 56.9496C174.704 57.3195 174.7 57.6381 174.628 57.8976C174.571 58.1002 174.472 58.2624 174.314 58.3714C173.873 58.7157 172.781 58.5938 171.383 58.2046C169.957 57.8076 168.201 57.08 166.35 56.0307C163.498 54.4138 160.422 52.0331 157.983 48.9107C155.455 45.6759 153.748 42.2158 152.757 39.247C152.143 37.409 151.804 35.7611 151.718 34.4753C151.639 33.2856 151.733 32.3855 152.132 32.0734Z" fill="#F8F8F8" stroke="#363636" stroke-width="0.714973"/>
<path fill-rule="evenodd" clip-rule="evenodd" d="M157.701 66.2052L173.91 59.0221C174.901 57.746 174.681 56.7459 173.25 56.0216C172.283 55.5322 164.653 54.6186 159.157 47.7916C157.399 45.6079 155.708 40.6881 154.082 33.0322L152.607 32.0563C151.593 32.1373 150.972 32.6414 150.743 33.5687C150.514 34.496 149.805 36.3119 148.616 39.0165C148.96 44.8264 149.844 49.9268 151.266 54.3175C152.688 58.7082 154.833 62.6708 157.701 66.2052Z" fill="white"/>
<path fill-rule="evenodd" clip-rule="evenodd" d="M162.375 63.9608L153.563 68.0241C151.505 65.2116 150.11 63.1444 149.379 61.8227C147.13 57.7566 146.049 54.2451 145.71 52.2791C145.425 50.6299 145.035 49.2783 145.38 47.94C146.604 43.1987 148.064 39.1973 149.759 35.9357C150.57 41.2898 151.399 45.2913 152.246 47.94C152.475 48.6572 153.129 50.1532 153.378 50.8647C155.006 55.518 158.005 59.8834 162.375 63.9608Z" fill="url(#paint0_linear_2490_42020)"/>
<path fill-rule="evenodd" clip-rule="evenodd" d="M147.365 70.9402L143.552 72.71L142.879 72.2762L141.944 71.2242L140.67 68.8361L139.765 66.2052L139.403 64.4492L140.407 61.3141L141.944 57.8876C142.182 58.7692 142.3 59.21 142.3 59.21C142.3 59.21 142.398 59.6098 142.595 60.4094L143.267 63.2115L143.889 64.4492L144.655 66.6479L145.888 68.4146L147.365 70.9402Z" fill="url(#paint1_linear_2490_42020)"/>
<path fill-rule="evenodd" clip-rule="evenodd" d="M139.798 61.8955C139.758 62.8508 139.627 63.9852 139.403 65.2988C138.491 70.66 138.65 73.7963 139.882 74.7077L138.466 75.3474C137.459 75.8029 136.273 75.3556 135.817 74.3482C135.6 73.8689 135.581 73.3237 135.763 72.8303L139.798 61.8955Z" fill="#363636" fill-opacity="0.1"/>
<path fill-rule="evenodd" clip-rule="evenodd" d="M151.698 32.0692C152.08 31.8931 152.529 31.8628 152.955 32.02C153.238 32.1244 153.481 32.302 153.664 32.528C153.847 32.754 153.97 33.0285 154.013 33.3269C155.081 40.6904 157.232 46.0331 160.434 49.3731C163.565 52.6387 167.876 54.8172 173.376 55.8951C173.821 55.9825 174.189 56.2423 174.424 56.5916C174.658 56.941 174.76 57.3799 174.672 57.8254C174.57 58.3473 174.221 58.7874 173.736 59.0059L138.319 75.0216C137.905 75.2087 137.454 75.2104 137.061 75.0619C136.667 74.9134 136.33 74.6146 136.143 74.2008C135.965 73.8072 135.949 73.3593 136.098 72.954L150.844 32.9933C151.001 32.5673 151.316 32.2454 151.698 32.0692Z" stroke="#363636" stroke-width="0.714973"/>
<path fill-rule="evenodd" clip-rule="evenodd" d="M180.784 18.7929C180.953 18.7929 181.091 18.9301 181.091 19.0993L181.09 20.6311L182.623 20.6314C182.792 20.6314 182.929 20.7686 182.929 20.9378C182.929 21.1071 182.792 21.2442 182.623 21.2442L181.09 21.2438L181.091 23.3892C181.091 23.5584 180.953 23.6956 180.784 23.6956C180.615 23.6956 180.478 23.5584 180.478 23.3892L180.477 21.2438L178.333 21.2442C178.164 21.2442 178.026 21.1071 178.026 20.9378C178.026 20.7686 178.164 20.6314 178.333 20.6314L180.477 20.6311L180.478 19.0993C180.478 18.9301 180.615 18.7929 180.784 18.7929Z" fill="#D7D7D7"/>
<path fill-rule="evenodd" clip-rule="evenodd" d="M190.794 37.7908C190.963 37.7908 191.1 37.928 191.1 38.0972L191.1 39.0163L192.019 39.0165C192.188 39.0165 192.326 39.1537 192.326 39.3229C192.326 39.4921 192.188 39.6293 192.019 39.6293L191.1 39.629L191.1 41.1614C191.1 41.3306 190.963 41.4678 190.794 41.4678C190.624 41.4678 190.487 41.3306 190.487 41.1614L190.487 39.629L188.955 39.6293C188.786 39.6293 188.649 39.4921 188.649 39.3229C188.649 39.1537 188.786 39.0165 188.955 39.0165L190.487 39.0163L190.487 38.0972C190.487 37.928 190.624 37.7908 190.794 37.7908Z" fill="#D7D7D7"/>
<path d="M193.044 17.5673L193.15 17.577C193.289 17.5982 193.423 17.6518 193.539 17.7337C193.64 17.8045 193.725 17.895 193.789 17.9991L193.834 18.0796L194.292 19.4619C194.402 19.7922 194.588 20.0923 194.835 20.3382C195.011 20.5139 195.214 20.6586 195.439 20.7677L195.576 20.8289L196.995 21.296C197.186 21.3552 197.352 21.4749 197.469 21.6367C197.55 21.7513 197.604 21.8833 197.626 22.0222C197.648 22.161 197.637 22.3031 197.595 22.4373C197.553 22.5714 197.48 22.6939 197.383 22.7953C197.325 22.8554 197.259 22.9071 197.188 22.9491L197.114 22.9879L195.738 23.4414C195.408 23.5516 195.108 23.7372 194.862 23.9835C194.686 24.1595 194.541 24.3629 194.432 24.5875L194.371 24.7248L193.905 26.1388C193.839 26.3202 193.721 26.4779 193.567 26.5917C193.414 26.7012 193.231 26.7599 193.042 26.7598C192.854 26.7601 192.671 26.7021 192.517 26.5937C192.416 26.5221 192.331 26.4309 192.266 26.3261L192.222 26.245L191.764 24.8596C191.684 24.6172 191.564 24.3901 191.408 24.1881C191.197 23.9141 190.925 23.694 190.614 23.5425L190.478 23.4819L189.063 23.0174C188.881 22.955 188.724 22.8373 188.612 22.6809C188.531 22.5662 188.477 22.4344 188.456 22.2956C188.434 22.1568 188.444 22.0148 188.487 21.8808C188.529 21.7468 188.601 21.6244 188.699 21.5231C188.757 21.463 188.822 21.4113 188.894 21.3693L188.967 21.3306L190.344 20.8795C190.665 20.7676 190.956 20.5843 191.195 20.3435C191.366 20.1715 191.507 19.9733 191.615 19.7545L191.676 19.6207L192.152 18.184C192.197 18.05 192.273 17.9285 192.374 17.829C192.475 17.7296 192.597 17.655 192.732 17.6113C192.799 17.5894 192.869 17.5755 192.939 17.5698L193.044 17.5673ZM193.062 18.1801L192.494 19.6626L192.432 19.8321C192.277 20.2226 192.046 20.5774 191.753 20.8774C191.457 21.1765 191.104 21.4124 190.548 21.6362L189.057 22.1198L190.542 22.6818L190.713 22.7448C191.108 22.9028 191.467 23.1385 191.768 23.4388C192.066 23.74 192.298 24.099 192.514 24.6634L192.997 26.1469L193.56 24.6642L193.623 24.4931C193.78 24.099 194.014 23.7419 194.314 23.4421C194.614 23.1417 194.972 22.9067 195.536 22.6873L197.024 22.2052L195.513 21.6366L195.341 21.5745C194.947 21.4184 194.589 21.184 194.289 20.8847C193.988 20.5846 193.753 20.2263 193.534 19.6623L193.062 18.1801Z" fill="#D7D7D7"/>
<path fill-rule="evenodd" clip-rule="evenodd" d="M151.879 18.5887C152.048 18.5887 152.185 18.7259 152.185 18.8952L152.185 20.4269L153.717 20.4272C153.887 20.4272 154.024 20.5644 154.024 20.7337C154.024 20.9029 153.887 21.0401 153.717 21.0401L152.185 21.0397L152.185 23.185C152.185 23.3542 152.048 23.4914 151.879 23.4914C151.71 23.4914 151.572 23.3542 151.572 23.185L151.572 21.0397L149.428 21.0401C149.258 21.0401 149.121 20.9029 149.121 20.7337C149.121 20.5644 149.258 20.4272 149.428 20.4272L151.572 20.4269L151.572 18.8952C151.572 18.7259 151.71 18.5887 151.879 18.5887Z" fill="#D7D7D7"/>
<path d="M159.019 9.39624C159.127 9.41373 159.23 9.45571 159.319 9.51922C159.392 9.57004 159.454 9.63372 159.502 9.70516L159.546 9.77902L159.92 10.902C160.009 11.1689 160.159 11.4115 160.358 11.6103C160.49 11.7428 160.642 11.8535 160.809 11.9392L160.937 11.9988L162.096 12.3824C162.247 12.4292 162.378 12.524 162.47 12.652C162.535 12.7427 162.577 12.8471 162.595 12.957C162.612 13.0669 162.603 13.1793 162.57 13.2855C162.545 13.3651 162.507 13.4395 162.456 13.5056L162.402 13.5688L161.087 14.0851C160.82 14.1741 160.578 14.3241 160.38 14.5232C160.247 14.6559 160.137 14.808 160.051 14.9749L159.991 15.1027L159.609 16.2586C159.557 16.4023 159.464 16.5272 159.342 16.6172C159.221 16.7039 159.076 16.7504 158.927 16.7502C158.779 16.7505 158.634 16.7046 158.513 16.6189C158.44 16.5674 158.378 16.5032 158.329 16.4312L158.286 16.3569L157.912 15.2313C157.848 15.0354 157.751 14.8519 157.625 14.6886C157.46 14.475 157.251 14.302 157.011 14.1804L156.889 14.1239L155.738 13.7445C155.594 13.6951 155.47 13.6019 155.382 13.4781C155.318 13.3874 155.275 13.2831 155.258 13.1732C155.241 13.0634 155.249 12.9511 155.282 12.845C155.307 12.7655 155.346 12.6911 155.396 12.6251L155.45 12.562L156.766 12.0477C157.025 11.9572 157.26 11.8091 157.453 11.6145C157.582 11.4847 157.69 11.3365 157.774 11.1741L157.833 11.0497L158.223 9.87552C158.259 9.76946 158.319 9.67327 158.399 9.5946C158.457 9.53681 158.525 9.48964 158.599 9.45495L158.675 9.42448L159.019 9.39624ZM158.943 10.0091L158.5 11.1657L158.446 11.3124C158.328 11.6015 158.156 11.8641 157.938 12.0869C157.719 12.3091 157.457 12.4851 157.024 12.6622L155.862 13.0392L157.02 13.4777L157.168 13.5329C157.461 13.6527 157.726 13.8287 157.95 14.0516C158.176 14.2799 158.352 14.5522 158.515 14.9801L158.892 16.1374L159.331 14.9807L159.386 14.8327C159.505 14.5409 159.68 14.2766 159.903 14.0542C160.13 13.8264 160.402 13.6483 160.829 13.4819L161.99 13.1058L160.811 12.6623L160.663 12.6079C160.371 12.4895 160.106 12.3145 159.884 12.0923C159.656 11.8648 159.478 11.5931 159.312 11.1655L158.943 10.0091Z" fill="#D7D7D7"/>
<path d="M163.394 45.0105C170.719 36.5308 177.729 30.919 184.426 28.175" stroke="#DCDCDC" stroke-width="0.714973" stroke-linecap="round"/>
<path d="M168.167 46.9594C171.39 43.476 175.864 40.8774 181.591 39.1635" stroke="#DCDCDC" stroke-width="0.714973" stroke-linecap="round"/>
<path d="M159.95 42.087C166.781 32.7652 170.197 24.9693 170.197 18.6992" stroke="#DCDCDC" stroke-width="0.714973" stroke-linecap="round"/>
<path d="M169.179 51.2203C175.009 47.2062 181.193 45.7859 187.73 46.9594" stroke="#DCDCDC" stroke-width="0.714973" stroke-linecap="round"/>
<path d="M158.085 37.8787C159.059 32.2386 159.059 27.632 158.085 24.0589" stroke="#DCDCDC" stroke-width="0.714973" stroke-linecap="round"/>
<path d="M162.233 64.1192C154.174 55.7497 150.144 46.0298 150.144 34.9597" stroke="#363636" stroke-width="0.714973" stroke-linecap="round"/>
<path d="M153.379 67.8354C148.046 61.4226 145.38 54.7908 145.38 47.94" stroke="#363636" stroke-width="0.714973" stroke-linecap="round"/>
<path d="M147.365 70.6805C144.121 66.9975 142.314 62.4637 141.944 57.079" stroke="#363636" stroke-width="0.714973" stroke-linecap="round"/>
<path d="M143.267 72.71C141.07 70.7121 139.782 67.8484 139.403 64.1191" stroke="#363636" stroke-width="0.714973" stroke-linecap="round"/>
<defs>
<linearGradient id="paint0_linear_2490_42020" x1="153.81" y1="84.0682" x2="180.472" y2="69.8342" gradientUnits="userSpaceOnUse">
<stop stop-color="#FF7100"/>
<stop offset="1" stop-color="#F6DA35"/>
</linearGradient>
<linearGradient id="paint1_linear_2490_42020" x1="143.384" y1="80.1212" x2="155.742" y2="73.4837" gradientUnits="userSpaceOnUse">
<stop stop-color="#FF7100"/>
<stop offset="1" stop-color="#F6DA35"/>
</linearGradient>
</defs>
</svg>
