<?xml version="1.0" encoding="UTF-8"?>
<svg width="110px" height="109px" viewBox="0 0 110 109" version="1.1" xmlns="http://www.w3.org/2000/svg" xmlns:xlink="http://www.w3.org/1999/xlink">
    <title>Artboard Copy</title>
    <defs>
        <linearGradient x1="50%" y1="92.3764653%" x2="50%" y2="7.50116425%" id="linearGradient-1">
            <stop stop-color="#FFC700" offset="0%"></stop>
            <stop stop-color="#FFAB00" offset="100%"></stop>
        </linearGradient>
    </defs>
    <g id="Artboard-Copy" stroke="none" stroke-width="1" fill="none" fill-rule="evenodd">
        <g id="Group-4">
            <rect id="Rectangle" x="0" y="0" width="110" height="110"></rect>
            <g id="Group-3" transform="translate(9.000000, 13.000000)">
                <g id="Group-2" transform="translate(16.096377, 11.761905)">
                    <g id="Group" transform="translate(0.000000, 5.280776)">
                        <path d="M20.0204641,0 C21.454502,-6.34051303e-05 22.6170708,1.16240259 22.6171342,2.59644047 C22.6171428,2.79054439 22.5953864,2.98403722 22.5516781,3.17315699 C20.3199442,12.9234361 18.0345146,19.6759343 15.6953893,23.4306518 C13.1104555,27.5799362 7.87865903,29.7237461 0,29.8620815 L9.05251712,0 L20.0204641,0 Z M14.3501103,7.47592706 L7.77126712,7.47592706 L5.63261924,22.823204 C8.43821541,23.1776858 10.5330848,22.2440276 11.9172273,20.0222295 C13.1787029,17.997334 14.4110137,14.3441954 15.6141597,9.0628137 C15.6359596,8.96863931 15.6468607,8.87228943 15.6469665,8.77562537 C15.6477511,8.05860686 15.0671288,7.47671245 14.3501103,7.47592706 L14.3501103,7.47592706 Z" id="Combined-Shape-Copy" stroke="#363636" stroke-width="1.29827764" fill="#EEEEEE" transform="translate(11.308567, 14.931041) scale(-1, 1) translate(-11.308567, -14.931041) "></path>
                        <path d="M8.56149368,0.610903136 C6.65281708,1.21275938 4.79716812,4.22195881 4.79716812,7.47592706 C4.79716812,10.7298953 6.71619457,20.4980281 10.0300053,23.5998907 C12.2392125,25.6677991 15.1888455,26.9182856 18.8789045,27.3513501 L21.1480324,29.8620815 L11.3105747,27.9580681 L7.67505806,23.5998907 L3.54945585,16.3728722 L1.47469885,6.1564003 L0.00401517377,2.17039513 L1.47469885,0.610903136 C7.4716798,0.209665642 9.83394474,0.209665642 8.56149368,0.610903136 Z" id="Path-2" fill="#D6D6D6"></path>
                        <path d="M20.0204641,0 C21.454502,-6.34051303e-05 22.6170708,1.16240259 22.6171342,2.59644047 C22.6171428,2.79054439 22.5953864,2.98403722 22.5516781,3.17315699 C20.3199442,12.9234361 18.0345146,19.6759343 15.6953893,23.4306518 C13.1104555,27.5799362 7.87865903,29.7237461 0,29.8620815 L9.05251712,0 L20.0204641,0 Z M14.3501103,7.47592706 L7.77126712,7.47592706 L5.63261924,22.823204 C8.43821541,23.1776858 10.5330848,22.2440276 11.9172273,20.0222295 C13.1787029,17.997334 14.4110137,14.3441954 15.6141597,9.0628137 C15.6359596,8.96863931 15.6468607,8.87228943 15.6469665,8.77562537 C15.6477511,8.05860686 15.0671288,7.47671245 14.3501103,7.47592706 L14.3501103,7.47592706 Z" id="Combined-Shape-Copy-3" stroke="#363636" stroke-width="1.29827764" transform="translate(11.308567, 14.931041) scale(-1, 1) translate(-11.308567, -14.931041) "></path>
                    </g>
                    <g id="Group-Copy" transform="translate(49.750082, 20.211816) scale(-1, 1) translate(-49.750082, -20.211816) translate(38.441515, 5.280776)">
                        <path d="M20.0204641,0 C21.454502,-6.34051303e-05 22.6170708,1.16240259 22.6171342,2.59644047 C22.6171428,2.79054439 22.5953864,2.98403722 22.5516781,3.17315699 C20.3199442,12.9234361 18.0345146,19.6759343 15.6953893,23.4306518 C13.1104555,27.5799362 7.87865903,29.7237461 0,29.8620815 L9.05251712,0 L20.0204641,0 Z M14.3501103,7.47592706 L7.77126712,7.47592706 L5.63261924,22.823204 C8.43821541,23.1776858 10.5330848,22.2440276 11.9172273,20.0222295 C13.1787029,17.997334 14.4110137,14.3441954 15.6141597,9.0628137 C15.6359596,8.96863931 15.6468607,8.87228943 15.6469665,8.77562537 C15.6477511,8.05860686 15.0671288,7.47671245 14.3501103,7.47592706 L14.3501103,7.47592706 Z" id="Combined-Shape-Copy" stroke="#363636" stroke-width="1.29827764" fill="#EEEEEE" transform="translate(11.308567, 14.931041) scale(-1, 1) translate(-11.308567, -14.931041) "></path>
                        <polygon id="Rectangle" fill="#D6D6D6" points="8.97276517 0 12.8165152 0 12.8165152 7.80952381 9.92438034 7.80952381"></polygon>
                        <polygon id="Rectangle-Copy" fill="#D6D6D6" points="14.0977652 22.1269841 17.9415152 22.1269841 20.2675659 29.8620815 15.0605228 28.7231927"></polygon>
                        <path d="M20.0204641,0 C21.454502,-6.34051303e-05 22.6170708,1.16240259 22.6171342,2.59644047 C22.6171428,2.79054439 22.5953864,2.98403722 22.5516781,3.17315699 C20.3199442,12.9234361 18.0345146,19.6759343 15.6953893,23.4306518 C13.1104555,27.5799362 7.87865903,29.7237461 0,29.8620815 L9.05251712,0 L20.0204641,0 Z M14.3501103,7.47592706 L7.77126712,7.47592706 L5.63261924,22.823204 C8.43821541,23.1776858 10.5330848,22.2440276 11.9172273,20.0222295 C13.1787029,17.997334 14.4110137,14.3441954 15.6141597,9.0628137 C15.6359596,8.96863931 15.6468607,8.87228943 15.6469665,8.77562537 C15.6477511,8.05860686 15.0671288,7.47671245 14.3501103,7.47592706 L14.3501103,7.47592706 Z" id="Combined-Shape-Copy-3" stroke="#363636" stroke-width="1.29827764" transform="translate(11.308567, 14.931041) scale(-1, 1) translate(-11.308567, -14.931041) "></path>
                    </g>
                    <path d="M46.0348423,0.64913882 C46.5620574,0.649104904 47.041403,0.858879652 47.3926296,1.20041285 C47.7438675,1.54195699 47.9669796,2.01526757 47.9816893,2.541494 C48.2565657,12.8288815 47.2636896,20.9265742 44.9782009,26.8290343 C42.7548271,32.5710778 39.3052217,36.2088362 34.5819697,37.6859444 C34.2837722,44.7083226 34.2806894,52.5550404 34.1177481,61.8615966 L34.1177481,61.8615966 L41.9069513,63.7732668 C43.4370607,64.148795 44.7506376,65.1264007 45.5496505,66.4842794 L45.5496505,66.4842794 L46.8288625,68.6582304 L15.0474493,69.6365755 L16.1006701,66.2433084 C16.9084817,65.0346103 18.1379227,64.1705176 19.5487896,63.8198534 L19.5487896,63.8198534 L27.4237596,61.8625673 C27.4297054,59.7586409 27.4335028,57.3505406 27.4351514,54.6377608 L27.4351514,54.6377608 L27.4351514,47.8582525 C27.4336337,44.9315269 27.4302949,41.7469495 27.4251349,38.3045206 L27.4251349,38.3045206 L27.4235904,37.7428809 C27.2442115,37.7217786 27.0644905,37.69598 26.8844247,37.6654744 C22.5331002,36.9283012 19.2772256,33.6621809 17.0309375,27.9955145 C14.6957388,22.1045552 13.4555256,13.6474653 13.2871002,2.62915122 C13.2781291,2.09145024 13.4879452,1.60100825 13.8344297,1.24274422 C14.1798234,0.885608246 14.6610272,0.659819466 15.1966944,0.649501879 L15.1966944,0.649501879 Z" id="Path-3" stroke="#363636" stroke-width="1.29827764" fill="#EEEEEE"></path>
                    <path d="M34.6555019,12.6976708 C34.8273126,12.6465499 35.0035788,12.6699086 35.1496726,12.7490002 C35.4982166,13.253728 35.4987547,13.3803871 35.4643592,13.4996847 L35.4643592,13.4996847 L34.633588,16.3811378 C34.5319604,16.7336235 34.5319604,17.1076463 34.633588,17.460132 L34.633588,17.460132 L35.4643592,20.3415852 C35.5140185,20.513824 35.489163,20.6898854 35.408833,20.8353019 C35.328503,20.9807185 35.1926984,21.0954901 35.0204596,21.1451495 C34.9011621,21.1795449 34.7745029,21.1790069 34.6555019,21.143599 L34.6555019,21.143599 L31.8652485,20.3133806 C31.5028487,20.2055513 31.1168963,20.2055513 30.7544965,20.3133806 L30.7544965,20.3133806 L27.9642431,21.143599 C27.7924324,21.19472 27.6161662,21.1713613 27.4700724,21.0922697 C27.3239786,21.0131781 27.2080572,20.8783535 27.1569363,20.7065429 C27.1215284,20.5875418 27.1209904,20.4608827 27.1553858,20.3415852 L27.1553858,20.3415852 L27.9861571,17.460132 C28.0877846,17.1076463 28.0877846,16.7336235 27.9861571,16.3811378 L27.9861571,16.3811378 L27.1553858,13.4996847 C27.1057265,13.3274459 27.130582,13.1513845 27.210912,13.0059679 C27.291242,12.8605514 27.4270466,12.7457797 27.5992854,12.6961204 C27.718583,12.6617249 27.8452421,12.662263 27.9642431,12.6976708 L27.9642431,12.6976708 L30.7544965,13.5278893 C31.1168963,13.6357186 31.5028487,13.6357186 31.8652485,13.5278893 L31.8652485,13.5278893 Z" id="Star" stroke="#363636" stroke-width="1.29827764" fill="url(#linearGradient-1)"></path>
                    <path d="M20.1482524,1.3015873 C19.4817324,9.06407595 19.4817324,15.9941161 20.1482524,22.0917078 C21.1480324,31.2380952 27.622943,36.5216163 29.0500753,37.2267027 C29.0500753,40.8430763 29.0500753,49.3663869 29.0500753,62.7966346 C25.1272329,64.3286121 22.582853,65.4304822 21.4169355,66.102245 C19.0446981,67.4690492 18.5415406,68.7468381 17.8106165,69.4993364 C16.2607766,70.2956899 15.1641034,70.2956899 14.5205969,69.4993364 L17.8106165,65.0793651 L26.7759968,61.3546771 L26.7759968,37.2267027 C23.8737588,36.8136628 22.2102052,36.1732804 21.7853361,35.3055556 C21.5655399,34.8566583 20.1968514,33.5948038 19.3088553,31.9760138 C17.6220877,28.9010876 15.9832409,24.2543325 15.404308,19.4512206 C15.1248064,17.1323378 14.1531624,14.5562584 13.9154614,11.7142631 C13.7399072,9.61530553 13.7399072,6.1444136 13.9154614,1.3015873 L20.1482524,1.3015873 Z" id="Path-5" fill="#D6D6D6"></path>
                    <path d="M46.0348423,0.64913882 C46.5620574,0.649104904 47.041403,0.858879652 47.3926296,1.20041285 C47.7438675,1.54195699 47.9669796,2.01526757 47.9816893,2.541494 C48.2565657,12.8288815 47.2636896,20.9265742 44.9782009,26.8290343 C42.7548271,32.5710778 39.3052217,36.2088362 34.5819697,37.6859444 C34.2837722,44.7083226 34.2806894,52.5550404 34.1177481,61.8615966 L34.1177481,61.8615966 L41.9069513,63.7732668 C43.4370607,64.148795 44.7506376,65.1264007 45.5496505,66.4842794 L45.5496505,66.4842794 L46.8288625,68.6582304 L15.0474493,69.6365755 L16.1006701,66.2433084 C16.9084817,65.0346103 18.1379227,64.1705176 19.5487896,63.8198534 L19.5487896,63.8198534 L27.4237596,61.8625673 C27.4297054,59.7586409 27.4335028,57.3505406 27.4351514,54.6377608 L27.4351514,54.6377608 L27.4351514,47.8582525 C27.4336337,44.9315269 27.4302949,41.7469495 27.4251349,38.3045206 L27.4251349,38.3045206 L27.4235904,37.7428809 C27.2442115,37.7217786 27.0644905,37.69598 26.8844247,37.6654744 C22.5331002,36.9283012 19.2772256,33.6621809 17.0309375,27.9955145 C14.6957388,22.1045552 13.4555256,13.6474653 13.2871002,2.62915122 C13.2781291,2.09145024 13.4879452,1.60100825 13.8344297,1.24274422 C14.1798234,0.885608246 14.6610272,0.659819466 15.1966944,0.649501879 L15.1966944,0.649501879 Z" id="Path-3" stroke="#363636" stroke-width="1.29827764"></path>
                </g>
                <g id="Group-9" fill="#FFAB00">
                    <g id="Group-5" transform="translate(74.312500, 42.952381)">
                        <rect id="Rectangle" x="3.84375" y="0" width="1" height="7.80952381" rx="0.5"></rect>
                        <path d="M3.84375,-0.427083333 C4.11331756,-0.427083333 4.33184524,-0.208555652 4.33184524,0.0610119048 L4.33184524,6.77232143 C4.33184524,7.04188899 4.11331756,7.26041667 3.84375,7.26041667 C3.57418244,7.26041667 3.35565476,7.04188899 3.35565476,6.77232143 L3.35565476,0.0610119048 C3.35565476,-0.208555652 3.57418244,-0.427083333 3.84375,-0.427083333 Z" id="Rectangle-Copy-2" transform="translate(3.843750, 3.416667) rotate(-270.000000) translate(-3.843750, -3.416667) "></path>
                    </g>
                    <g id="Group-5" transform="translate(0.000000, 13.015873)">
                        <rect id="Rectangle" x="3.84375" y="0" width="1" height="6.50793651" rx="0.5"></rect>
                        <path d="M3.84375,-0.996527778 C4.06838963,-0.996527778 4.25049603,-0.814421376 4.25049603,-0.589781746 L4.25049603,6.28422619 C4.25049603,6.50886582 4.06838963,6.69097222 3.84375,6.69097222 C3.61911037,6.69097222 3.43700397,6.50886582 3.43700397,6.28422619 L3.43700397,-0.589781746 C3.43700397,-0.814421376 3.61911037,-0.996527778 3.84375,-0.996527778 Z" id="Rectangle-Copy-2" transform="translate(3.843750, 2.847222) rotate(-270.000000) translate(-3.843750, -2.847222) "></path>
                    </g>
                    <path d="M15.5039766,0 C15.6546219,0.024771201 15.7977812,0.0842083584 15.9228934,0.174123764 C16.0242813,0.246083945 16.1109422,0.336246004 16.1780714,0.437413048 L16.2385122,0.54198187 L16.7598829,2.13199916 C16.8839293,2.51001079 17.0929111,2.85340614 17.3702255,3.1349073 C17.5550956,3.32256119 17.7669093,3.47927107 17.9993316,3.60069276 L18.1774134,3.68507462 L19.7922926,4.22817724 C20.0027495,4.29448215 20.18621,4.42862816 20.3147305,4.60988283 C20.4044685,4.73832069 20.4636893,4.8861364 20.4877793,5.04174351 C20.5118686,5.19735532 20.5002607,5.3565214 20.4536987,5.50684194 C20.4188557,5.6195538 20.3651134,5.72495427 20.2951072,5.81851025 L20.2197773,5.90795017 L18.3862928,6.63898608 C18.0149057,6.76511914 17.677413,6.97752801 17.4008046,7.25937591 C17.2163067,7.44727333 17.0621965,7.66259619 16.9427247,7.898894 L16.8596821,8.07994937 L16.3269011,9.71661728 C16.2547364,9.91998184 16.1247463,10.0969361 15.9543574,10.2243707 C15.7859352,10.3470267 15.5839751,10.4128866 15.3766286,10.412695 C15.1695784,10.4130821 14.9675098,10.3480468 14.7983114,10.2266611 C14.6968161,10.1538509 14.6101472,10.0629079 14.543065,9.9610104 L14.4826881,9.85572729 L13.9614929,8.26200371 C13.8717761,7.98459105 13.7363867,7.72474257 13.5610736,7.49351596 C13.3316244,7.19116652 13.0396366,6.94614859 12.7057069,6.77393219 L12.5353422,6.69396241 L10.9314254,6.15674661 C10.7311753,6.08677643 10.55744,5.95485121 10.434707,5.77960791 C10.3452196,5.65117724 10.2861565,5.50342538 10.2621417,5.34791525 C10.2381376,5.19241266 10.2498284,5.03337603 10.2963004,4.8832349 C10.33116,4.77061837 10.3848825,4.66529732 10.454824,4.57180084 L10.5300739,4.48241364 L12.3641975,3.75426561 C12.7247862,3.62616928 13.0520548,3.41641185 13.3212949,3.14084026 C13.5007971,2.95710224 13.6513797,2.74731019 13.7691016,2.51736705 L13.8511701,2.34122359 L14.3949018,0.678619897 C14.4450251,0.528446911 14.5289099,0.392248306 14.6398679,0.280856559 C14.7213699,0.199035846 14.8158242,0.132249893 14.9189835,0.083124587 L15.0248872,0.0399834194 L15.5039766,0 Z M15.3983776,0.867724726 L14.7812232,2.50545279 L14.7054829,2.71316574 C14.5412771,3.12251202 14.3013826,3.49432969 13.9977195,3.80970419 C13.691706,4.12437545 13.3273012,4.37362938 12.7240746,4.62434273 L12.7240746,4.62434273 L11.1041667,5.15820754 L12.7180348,5.77909657 L12.9249602,5.85722609 C13.3326351,6.02685575 13.7021487,6.27598637 14.0135858,6.59160592 C14.3286012,6.91489644 14.5743733,7.30048157 14.8024173,7.90636899 L14.8024173,7.90636899 L15.3276166,9.54497198 L15.9396563,7.90720612 L16.0159653,7.69753562 C16.1817815,7.28448061 16.4260721,6.91027087 16.7359711,6.59523601 C17.0532337,6.27272426 17.4319109,6.02055215 18.0276817,5.78496114 L18.0276817,5.78496114 L19.6458333,5.25239563 L18.0025564,4.62448541 L17.7959198,4.54742268 C17.3888248,4.37982099 17.0199239,4.13209377 16.7094792,3.81741336 C16.3917202,3.49530139 16.1434898,3.11056727 15.9121699,2.50508768 L15.9121699,2.50508768 L15.3983776,0.867724726 Z" id="Combined-Shape-Copy-2" fill-rule="nonzero"></path>
                </g>
            </g>
        </g>
    </g>
</svg>