<svg width="46" height="23" viewBox="0 0 46 23" fill="none" xmlns="http://www.w3.org/2000/svg">
<path fill-rule="evenodd" clip-rule="evenodd" d="M2.81476 21.9856C5.75613 23.9082 10.1985 22.7651 13.9192 19.4902C14.3793 20.5224 15.0725 21.3788 16.0009 21.9856C18.8394 23.8409 23.0753 22.8415 26.712 19.8264C27.1671 20.7089 27.8067 21.446 28.6323 21.9856C30.5003 23.2066 32.9737 23.1912 35.4832 22.1784C38.1057 21.1201 40.7676 18.9728 42.8197 16.0091C46.8353 10.2096 46.9942 3.48415 43.174 0.987177C40.3366 -0.869136 36.1 0.131111 32.4628 3.14664C32.0077 2.26403 31.3681 1.52682 30.5427 0.987177H30.5412C27.6005 -0.936413 23.1584 0.207406 19.4378 3.48253C18.6507 1.98185 17.3571 0.987177 17.3571 0.987177C16.3857 0.351891 15.251 0.0511682 14.0323 0.0512696C10.4579 0.0515735 6.16364 2.63923 3.16898 6.96363C-0.846598 12.7626 -1.00547 19.4886 2.81476 21.9856Z" fill="url(#paint0_linear_5813_72040)"/>
<path fill-rule="evenodd" clip-rule="evenodd" d="M14.659 8.12136C14.2033 7.88133 13.6395 8.05601 13.3994 8.51155L11.4047 12.297L9.39345 8.50902C9.152 8.05419 8.58754 7.88133 8.13271 8.12278C7.67797 8.36423 7.50502 8.92869 7.74647 9.38353L10.353 14.2928L10.024 14.9172C9.69752 15.5412 9.05676 15.9441 8.35176 15.9685C7.83715 15.9863 7.4344 16.418 7.45223 16.9327C7.46966 17.4364 7.88345 17.8327 8.38348 17.8327C8.39442 17.8327 8.40536 17.8325 8.41641 17.8322C9.79033 17.7846 11.0394 16.9989 11.675 15.7841L15.0492 9.38099C15.2893 8.92545 15.1146 8.3615 14.659 8.12136Z" fill="white"/>
<path fill-rule="evenodd" clip-rule="evenodd" d="M32.9171 15.6036C32.5239 15.6036 32.1656 15.3717 32.0044 15.0128C31.8431 14.6539 31.9074 14.2317 32.1682 13.9371L36.0561 9.54803L36.0593 9.54321C36.2124 9.31433 36.2933 9.04672 36.2933 8.76899C36.2933 7.99969 35.6681 7.37377 34.8994 7.37377C34.5271 7.37377 34.1771 7.51892 33.9139 7.7825C33.7249 7.97168 33.4735 8.07585 33.2062 8.07585C32.9389 8.07585 32.6875 7.97168 32.4984 7.7825C32.3095 7.59332 32.2053 7.34173 32.2053 7.07403C32.2053 6.80642 32.3095 6.55483 32.4984 6.36565C33.1397 5.72371 33.9925 5.37012 34.8994 5.37012C36.7718 5.37012 38.2951 6.89487 38.2951 8.76899C38.2951 9.48769 38.0735 10.1749 37.6542 10.7564C37.635 10.7832 37.6139 10.8096 37.5915 10.835L35.1421 13.5999H37.6029C38.1548 13.5999 38.6037 14.0494 38.6037 14.6018C38.6037 15.1542 38.1548 15.6036 37.6029 15.6036H32.9171Z" fill="white"/>
<path fill-rule="evenodd" clip-rule="evenodd" d="M18.9417 13.8C17.8605 13.8 16.9809 12.9203 16.9809 11.8392C16.9809 10.758 17.8605 9.87832 18.9417 9.87832C20.0229 9.87832 20.9026 10.758 20.9026 11.8392C20.9026 12.9203 20.0229 13.8 18.9417 13.8ZM22.7674 11.8393C22.7674 9.72976 21.0512 8.01367 18.9418 8.01367C16.8324 8.01367 15.1162 9.72976 15.1162 11.8393C15.1162 13.9487 16.8324 15.6649 18.9418 15.6649C19.6829 15.6649 20.375 15.4524 20.9617 15.086C21.0935 15.441 21.4342 15.6945 21.835 15.6945C22.35 15.6945 22.7674 15.277 22.7674 14.7621V11.8393Z" fill="white"/>
<path fill-rule="evenodd" clip-rule="evenodd" d="M27.2831 13.8002C26.2019 13.8002 25.3223 12.9205 25.3223 11.8394C25.3223 10.7582 26.2019 9.87852 27.2831 9.87852C28.3642 9.87852 29.2439 10.7582 29.2439 11.8394C29.2439 12.9205 28.3642 13.8002 27.2831 13.8002ZM30.1765 5.14404C29.6614 5.14404 29.244 5.56149 29.244 6.07651V8.55615C28.6702 8.21216 27.9996 8.01388 27.2832 8.01388C25.1737 8.01388 23.4575 9.72996 23.4575 11.8395C23.4575 13.9489 25.1737 15.6651 27.2832 15.6651C28.0243 15.6651 28.7164 15.4526 29.3031 15.0862C29.4348 15.4413 29.7756 15.6947 30.1765 15.6947C30.6914 15.6947 31.1088 15.2772 31.1088 14.7623V6.07651C31.1088 5.56149 30.6914 5.14404 30.1765 5.14404Z" fill="white"/>
<defs>
<linearGradient id="paint0_linear_5813_72040" x1="30.6053" y1="34.0125" x2="43.0991" y2="-1.20827" gradientUnits="userSpaceOnUse">
<stop stop-color="#FF5400"/>
<stop offset="1" stop-color="#F6DA34"/>
</linearGradient>
</defs>
</svg>
